<svg width="480" height="200" viewBox="0 0 480 200" fill="none" xmlns="http://www.w3.org/2000/svg">
<path d="M368.646 199.354C368.842 199.549 369.158 199.549 369.354 199.354L372.536 196.172C372.731 195.976 372.731 195.66 372.536 195.464C372.34 195.269 372.024 195.269 371.828 195.464L369 198.293L366.172 195.464C365.976 195.269 365.66 195.269 365.464 195.464C365.269 195.66 365.269 195.976 365.464 196.172L368.646 199.354ZM0 87V87.5H349V87V86.5H0V87ZM369 107H368.5V199H369H369.5V107H369ZM349 87V87.5C359.77 87.5 368.5 96.2304 368.5 107H369H369.5C369.5 95.6782 360.322 86.5 349 86.5V87Z" fill="#CACACA"/>
<path d="M479.354 87.3535C479.549 87.1583 479.549 86.8417 479.354 86.6464L476.172 83.4644C475.976 83.2692 475.66 83.2692 475.464 83.4644C475.269 83.6597 475.269 83.9763 475.464 84.1716L478.293 87L475.464 89.8284C475.269 90.0237 475.269 90.3403 475.464 90.5355C475.66 90.7308 475.976 90.7308 476.172 90.5355L479.354 87.3535ZM389 87L389 86.5L389 87ZM479 87L479 86.5L389 86.5L389 87L389 87.5L479 87.5L479 87ZM369 67L369.5 67L369.5 -2.48447e-08L369 -5.97956e-08L368.5 -9.47465e-08L368.5 67L369 67ZM389 87L389 86.5C378.23 86.5 369.5 77.7695 369.5 67L369 67L368.5 67C368.5 78.3218 377.678 87.5 389 87.5L389 87Z" fill="#CACACA"/>
</svg>
