<svg xmlns="http://www.w3.org/2000/svg" width="232" height="57" fill="none" xmlns:v="https://vecta.io/nano"><g clip-path="url(#A)"><g fill="#143d43"><path d="M121.553 17.117l-.325 2.688c-.306 1.793-1.333 3.163-2.515 4.477-1.397 1.551-3.077 2.591-5.08 2.948-2.622.468-5.165.311-7.55-1.21-1.625-1.036-2.928-2.333-3.776-4.019-.959-1.907-1.294-3.946-1.036-6.148.238-2.029.952-3.753 2.214-5.276 1.459-1.761 3.201-3.086 5.5-3.525 1.955-.374 3.898-.386 5.786.275 1.119.392 2.179.928 3.07 1.782.915.877 1.808 1.759 2.412 2.892.848 1.591 1.403 3.258 1.3 5.116zm-3.682.141c.3-3.683-3.194-6.745-6.403-6.811-3.411-.069-6.726 3.02-6.736 6.645-.01 3.476 3.008 6.73 6.529 6.72 3.416-.01 6.777-2.911 6.61-6.554zm34.61-.108V7.97l.008-.504c-.019-.473.207-.65.664-.648l8.149.061c1.984.119 3.481 1.261 4.556 3.01.913 1.485.884 3.083.702 4.68-.14 1.226-.849 2.252-1.721 3.1-.493.479-1.083.869-1.672 1.227-.342.207-.259.414-.159.665l.792 1.943 2.154 4.981.155.372c.122.315.061.55-.311.555-1.027.013-2.056.029-3.08-.018-.188-.009-.43-.275-.53-.48l-1.096-2.454-3.004-6.899a7.26 7.26 0 0 1-.349-.943c-.187-.681-.062-.862.619-.883l1.987.002c1.964.149 3.264-2.053 2.423-3.78-.448-.921-1.269-1.397-2.22-1.465-1.286-.093-2.583-.022-3.876-.031-.416-.003-.609.185-.596.608l-.002.807V26l-.001.807c.011.413-.158.624-.585.619-.795-.009-1.591-.009-2.386.002-.409.006-.623-.16-.609-.592l-.003-.706v-8.98h-.009zm25.869 10.215c-2.139.277-4.012-.519-5.655-1.752-2.155-1.619-3.639-3.743-4.116-6.521-.45-2.63-.093-5.125 1.289-7.359.977-1.579 2.258-2.906 3.988-3.79 2.683-1.371 5.401-1.493 8.177-.548 2.338.797 4.108 2.382 5.399 4.509.443.73.328.936-.511.95-.895.016-1.79-.01-2.685.008-.429.008-.774-.12-1.056-.449-1.12-1.31-2.643-1.789-4.248-1.914-1.674-.13-3.187.423-4.476 1.566a8.55 8.55 0 0 0-1.927 2.517c-.149.288-.201.636-.256.964-.299 1.808-.148 3.553.803 5.156 1.279 2.156 3.969 3.277 6.499 2.975 1.45-.173 2.543-.831 3.551-1.782a1.34 1.34 0 0 1 1.158-.403c.887.09 1.787.039 2.681.065.761.022.835.161.462.802-1.61 2.767-3.992 4.425-7.094 4.988-.641.116-1.321.017-1.983.017zm25.29.092c-.593-.032-1.318.135-1.744-.153-.418-.282-.549-1.02-.777-1.57l-.785-2.068c-.17-.551-.49-.724-1.028-.715l-4.177.003c-.874-.007-.958-.132-.669-.927l.797-2.166c.169-.56.496-.732 1.031-.706a14.76 14.76 0 0 0 1.591-.008c.534-.031.686-.207.508-.702l-1.521-3.935c-.056-.139-.22-.233-.334-.347-.146.162-.354.3-.429.491l-1.964 5.161-2.663 6.943c-.181.485-.438.694-.949.676-.794-.029-1.591.009-2.386-.015-.575-.017-.697-.193-.581-.756a4.09 4.09 0 0 1 .21-.672l2.644-6.713 2.82-7.524 1.491-3.945c.36-.953.397-1 1.348-.985 2.141.035 1.642-.323 2.431 1.701l2.696 7.141 4.18 10.876c.303.786.265.857-.545.883l-1.193.002-.002.029zm12.075-15.17c-.265 0-.531-.013-.795.003-.57.034-.954-.072-1.232-.718-.408-.946-1.144-1.24-1.918-1.01-.856.254-1.425 1.029-1.379 1.855.031.548.295.977.713 1.27.457.322.957.589 1.46.834l2.784 1.312c2.236 1.333 3.607 4.142 2.707 7.235-.632 2.177-2.019 3.574-4.082 4.144-2.251.621-4.371.25-6.159-1.481-.826-.799-1.333-1.738-1.69-2.798a2.18 2.18 0 0 1-.087-.392c-.129-.966.144-1.224 1.086-1.1a11.63 11.63 0 0 0 1.678.101c.49-.007.773.144.979.633.487 1.156 1.579 1.767 2.689 1.592 1.179-.185 2.135-1.138 2.278-2.327.111-.918-.308-1.629-.979-2.196-.825-.696-1.803-1.142-2.799-1.473-1.435-.477-2.618-1.248-3.463-2.515a3.58 3.58 0 0 1-.485-1.088c-.534-2.106-.31-4.103 1.181-5.744.838-.923 1.963-1.469 3.234-1.599 2.378-.243 4.198.724 5.463 2.726.343.544.509 1.236.627 1.884.127.704-.027.82-.718.848h-.596-.497zm-77.545 4.755V8.066l-.003-.605c-.028-.49.224-.66.669-.636.165.009.331-.004.497-.004l10.038-.002.596.007c.371-.002.539.189.538.56l.006 2.42c.009.477-.205.662-.659.655-.728-.012-1.457 0-2.186 0-1.59 0-3.18-.007-4.771 0-1.089.005-1.145.056-1.146 1.12l.003 11.296c.002.89.03.917.891.919h6.957c.876.002.89.023.902.904l.001 2.118c.005.421-.175.614-.595.607-.629-.01-1.259.003-1.888.003-2.949 0-5.897.003-8.846-.004-.991-.002-1.001-.013-1.003-1.002l-.001-9.38zM123.083 6.783c.591.042 1.324-.115 1.732.184.398.292.486 1.043.673 1.605l2.769 8.399c.063.191.115.391.216.56a.34.34 0 0 0 .306.014c.119-.198.207-.419.28-.64l2.616-7.923c.234-.695.563-1.356.848-2.033l2.062-.12c1.633-.026 1.674-.001 1.183 1.539l-2.861 8.685-2.371 7.366-.824 2.372c-.141.451-.37.672-.853.644-.489-.029-1.013.093-1.214-.578l-.584-1.71-2.456-7.335-1.912-5.92-1.215-3.616c-.032-.095-.087-.182-.12-.277-.389-1.105-.343-1.17.828-1.175h.895c0-.013.001-.026.002-.039zm104.046 12.152l-.002 7.466c-.002 1.014-.01 1.018-.979 1.027-.63.006-1.259-.004-1.889-.003-.364 0-.551-.175-.55-.55l-.005-.807.001-14.427.001-.404c-.024-.71-.05-.756-.726-.769l-2.883-.01c-.923-.007-.927-.013-.937-.961l-.002-2.119c-.002-.376.176-.555.543-.552l.497-.005 10.34-.003.596.009c.304.006.518.125.52.468l-.006 2.723c-.008.423-.336.441-.645.442l-2.684.001-.696.009c-.318.006-.491.161-.491.495l-.003.908v7.062z"/><path d="M146.688 18.532c-.991 0-1.981.011-2.972-.004-.736-.011-.765-.045-.778-.817l.002-2.211c-.002-.412.163-.611.59-.609l6.339.004c.392-.001.634.126.633.567l.004 2.513c.002.453-.27.554-.648.552l-3.17-.002v.007zm62.454 31.689l-1.664-.225c-1.844-.38-2.842-1.61-3.188-3.421-.291-1.521-.161-3.02.597-4.382s2.007-1.992 3.507-2.119c.56-.047 1.126-.001 1.69-.011 1.769-.031 3.442.948 4.044 3.08.415 1.472.376 2.971-.328 4.416-.822 1.687-2.203 2.411-3.954 2.586-.23.023-.464.003-.696.003l-.008.071zm3.18-5.041l-.104-.019c0-.302.028-.608-.004-.906-.197-1.824-1.068-2.714-2.887-2.759-1.26-.031-2.41.605-2.777 1.715-.235.712-.273 1.51-.292 2.272-.077 3.112 2.758 3.676 4.648 2.699.429-.222.819-.703 1.019-1.159.246-.563.274-1.224.397-1.843zm-54.261.332c-.893 0-1.787-.014-2.68.004-.807.016-1.004.316-.75 1.079.547 1.647 2.262 2.506 4.084 2.044l1.823-.462c.308-.064.681-.166.864.248.16.363-.036.963-.438 1.102-.713.247-1.447.473-2.191.58-1.388.2-2.793.109-4.086-.444s-1.971-1.702-2.099-3.074c-.095-1.021-.037-2.08.118-3.097a3.95 3.95 0 0 1 4.13-3.419c.755.028 1.527.037 2.255.212 1.57.377 2.527 1.646 2.585 3.271v1.209c-.002.495-.247.74-.736.739h-2.878zm-.883-1.397v-.006l2.178-.001c.307-.002.586-.158.48-.472-.188-.555-.358-1.211-.755-1.58-1.393-1.292-3.872-.558-4.464 1.249-.191.582-.063.781.581.805l1.98.005zm-32.7 1.979l-.005 3.126c-.013.692-.138.773-.963.758-.743-.013-.828-.071-.837-.782l-.015-4.236c-.013-.6-.064-1.214-.207-1.793-.402-1.625-1.582-1.839-3.118-1.236-.149.059-.265.199-.403.291-.936.624-1.33 1.451-1.24 2.632.107 1.404.03 2.822.018 4.234-.006.764-.485 1.161-1.197 1.012-.353-.074-.614-.254-.607-.672l-.005-.202-.151-4.828.015-3.601c.006-.222.175-.578.342-.629.433-.132.922-.2 1.313.161.116.107.195.272.249.425.111.315.299.311.542.179.146-.079.304-.14.44-.235 1.3-.91 2.713-.81 4.091-.335 1.158.399 1.65 1.415 1.71 2.605l.011 3.126zm12.546-1.3l-.003-2.321c-.015-.727-.036-.736-.712-.794-.066-.006-.133.002-.199-.003-.6-.051-.806-.218-.806-.65 0-.565.25-.846.818-.924.589-.08.889-.422.9-1.027l.002-.505c.031-.769.131-.873.861-.913 1.042-.056 1.114.007 1.109 1.106-.007 1.518-.057 1.511 1.467 1.496l.795.008c.616.037.708.134.708.701 0 .574-.09.677-.703.7l-1.591.007c-.437-.01-.694.132-.676.63l.175 5.029c.06.944.522 1.27 1.439 1.224.132-.007.267-.014.394-.046.367-.092.793-.388.944.261s-.068 1.188-.639 1.271c-.711.104-1.461.133-2.168.022-1.234-.195-1.774-.775-1.95-2.06-.145-1.06-.159-2.138-.231-3.208l.066-.004zm88.943.212l.004-3.832c.003-.386-.108-.839.389-1.039.466-.188 1.075-.031 1.366.432.328.521.647.331.981.068.703-.554 1.51-.635 2.355-.563.741.063 1.214 1.025.76 1.613-.105.136-.434.2-.618.148-.749-.213-1.376-.203-2.004.409-.721.703-1.294 1.399-1.27 2.486l.015 4.336c.024.729-.152 1.118-1.16 1.066-.615-.032-.803-.23-.811-.886l-.005-4.235h-.002zm-124.775-1.692l.003-5.636c.001-.358-.095-.843.352-.943.429-.096.907-.026 1.352.044.11.017.223.309.254.489.045.261.02.535.02.803v10.467l-.001.403c-.019.358.096.843-.352.944-.43.097-.931.082-1.342-.059-.173-.059-.269-.569-.274-.876l-.012-4.831v-.805zm72.484 2.322l-.219-4.318c-.032-.605.172-1.102.506-1.2.651-.19 1.179.041 1.403.702.109.324.19.394.451.183.103-.084.239-.143.308-.249.406-.611 1.01-.704 1.662-.69l.795.008c.813.042 1.232.854.76 1.546-.107.158-.457.239-.674.206-.489-.073-.988-.308-1.419.09-.556.513-1.252.984-1.554 1.633-.305.656-.242 1.507-.268 2.275l-.023 3.327c-.007.261-.159.716-.297.738-.435.07-.903.012-1.339-.085-.095-.021-.15-.413-.153-.635l-.007-3.53.068-.003zm17.914-5.543c.867.002 1.065.211 1.055 1.265l-.123 7.839c-.015.803-.172.942-.936.936-.824-.007-1.029-.178-1.033-.967l-.003-8.054c.003-.94.104-1.022 1.04-1.02zm-.068-1.644c-.931-.007-1.192-.24-1.176-1.052s.396-1.143 1.294-1.133c.812.009 1.079.306 1.075 1.197-.003.872-.152.995-1.193.987z"/></g><path d="M49.638 10.34c1.459 1.726 2.684 3.604 3.592 5.69l1.134 2.596a28.1 28.1 0 0 1 1.662 7.857c.352 5.192-.615 10.108-2.88 14.772-.971 2.001-2.185 3.837-3.579 5.555-.093.115-.18.236-.27.354-.411.424-.801.871-1.235 1.268l-3.48 3.118-1.891 1.252c-2.114 1.338-4.371 2.342-6.764 3.061-3.167.951-6.399 1.285-9.678 1.083-3.868-.239-7.551-1.251-10.993-3.07-5.508-2.912-9.658-7.2-12.409-12.855-2.011-4.135-2.935-8.53-2.84-13.133.089-4.291 1.083-8.366 2.986-12.208.931-1.88 2.046-3.636 3.369-5.252 3.616-4.418 8.104-7.521 13.534-9.189.781-.24 1.549-.546 2.386-.533 2.054-.667 4.18-.706 6.302-.692 2.796.019 5.53.496 8.181 1.395a33.52 33.52 0 0 1 3.258 1.321c1.548.714 3.01 1.59 4.383 2.615-.128.135-.241.291-.387.403-1.45 1.108-2.778 2.349-3.993 3.717-.137.154-.314.271-.473.405l-2.046-1.138c-2.097-1.096-4.338-1.744-6.666-2.05-2.613-.344-5.221-.222-7.784.403-2.735.668-5.276 1.806-7.558 3.494-1.741 1.287-3.365 2.713-4.619 4.506-.824 1.179-1.692 2.356-2.303 3.65-.655 1.387-1.299 2.811-1.562 4.362-.18 1.063-.499 2.096-.571 3.185-.116 1.755-.147 3.507.121 5.247.173 1.126.385 2.25.656 3.355.151.617.451 1.197.698 1.788.926 2.221 2.028 4.328 3.651 6.128 1.394 1.546 2.84 3.021 4.619 4.116.924.569 1.837 1.149 2.834 1.601 4.182 1.895 8.514 2.439 13.015 1.612 2.595-.477 5.013-1.425 7.257-2.829.131-.082.228-.222.34-.336.186-.067.395-.1.554-.207 1.379-.932 2.617-2.036 3.766-3.244.169-.177.292-.399.437-.6.462-.578.956-1.132 1.381-1.736 2.206-3.145 3.49-6.651 3.88-10.485.256-2.519.081-5.024-.548-7.475-.285-1.111-.656-2.206-1.079-3.271-.839-2.115-2.024-4.024-3.511-5.737.107-.176.191-.374.326-.525a21.98 21.98 0 0 1 4.073-3.555c.27-.184.413-.057.597.08.02.03.043.056.071.077l.008.048.048.012z" fill="#c49d5a"/><g fill="#143d43"><path d="M48.914 10.123a21.98 21.98 0 0 0-4.073 3.555c-.135.151-.218.349-.326.525-.114.084-.254.148-.337.257-.775 1.007-1.494 2.049-2.142 3.152-.991 1.686-1.644 3.501-2.186 5.362-.405 1.392-.557 2.84-.651 4.281a21.09 21.09 0 0 0 .475 5.969l.52 1.911c.386 1.403.985 2.721 1.672 3.987.502.925 1.14 1.776 1.725 2.654l.801 1.133c-.145.201-.268.423-.437.6-1.149 1.207-2.386 2.312-3.765 3.244-.16.108-.368.14-.554.207-.103-.061-.24-.097-.305-.187l-1.956-2.737c-.888-1.27-1.612-2.642-2.218-4.064-.776-1.821-1.384-3.706-1.756-5.663-.347-1.824-.614-3.655-.552-5.52l.145-3.32a36.74 36.74 0 0 1 .593-3.712c.184-.871.498-1.715.777-2.564.424-1.292.91-2.559 1.564-3.753l.839-1.501 1.563-2.392 1.224-1.679c.159-.134.336-.251.473-.405 1.215-1.368 2.543-2.609 3.993-3.717.146-.111.259-.267.387-.403l1.749-1.1c1.949-1.25 4.038-2.202 6.223-2.92 1.418-.466 2.874-.818 4.362-.976L60.69 0c2.807-.01 5.57.383 8.268 1.209 2.411.738 4.698 1.759 6.81 3.139 1.158.756 2.198 1.695 3.317 2.517 1.063.781 1.859 1.834 2.794 2.744.256.249.468.547.685.835.162.215.105.356-.154.41-.122.025-.252.02-.378.02-2.509.001-5.017-.004-7.525.007-.378.002-.712-.094-1.008-.31C71.743 9.287 69.84 8.28 67.792 7.6c-1.152-.383-2.368-.576-3.56-.828-1.642-.347-3.313-.34-4.968-.226-1.229.085-2.446.373-3.663.604-1.27.241-2.436.808-3.632 1.274-.37.144-.715.359-1.067.55l-1.046.583M44.58 51.548l3.48-3.118c.434-.397.825-.844 1.235-1.268l.819.454c2.426 1.383 5.007 2.312 7.77 2.67 1.08.14 2.176.251 3.261.23a21.08 21.08 0 0 0 3.629-.374c1.661-.323 3.283-.775 4.812-1.496a25.81 25.81 0 0 0 3.082-1.732c.767-.5 1.517-.788 2.456-.763l7.014.024c.197.001.395.068.592.104-.112.173-.208.36-.34.515l-1.632 1.861c-.577.587-1.204 1.125-1.829 1.66-1.028.88-2.105 1.691-3.253 2.408-1.491.931-3.042 1.742-4.687 2.34l-4.153 1.299c-1.075.264-2.194.369-3.301.464l-3.4.124c-.836-.008-1.669-.178-2.505-.203-.975-.029-1.915-.248-2.862-.433l-.978-.241c-1.642-.47-3.257-1.006-4.8-1.76-1.346-.658-2.653-1.378-3.878-2.246-.199-.141-.355-.346-.53-.521zm38.353-17.629v8.662.193c-.01.567-.093.662-.622.569l-2.286-.46-2.457-.571c-.539-.12-.574-.141-.574-.718l-.001-15.334c0-.579.032-.61.567-.726l4.555-.993a2.06 2.06 0 0 1 .248-.042c.484-.044.561.014.565.503l.004 3.529v5.389zm-5.175-.563l.31.756c.013.028.188.029.201.001.131-.281.29-.562.35-.861.069-.346-.182-.653-.44-.639-.235.013-.422.286-.421.743zm-3.921.631v-9.623-.321c.012-.559.014-.571.577-.572l7.712.004c.155 0 .31.063.465.096-.143.055-.281.133-.428.162l-3.835.748-2.104.391c-.509.092-.621.218-.621.775l.002 6.159v10.328c0 .673-.006.702.649.86l2.896.625 3.268.705c.041.009.083.022.118.044.045.028.083.067.124.101-.04.011-.08.029-.121.031l-.379.005h-7.522c-.105 0-.211.006-.316-.002-.398-.031-.471-.094-.48-.509l-.004-1.796v-8.212z"/></g><g fill="#c49d5a"><path d="M78.153 19.672l.002 1.726c.002.241-.036.394-.341.388l-3.465-.015c-.254.001-.329-.115-.329-.347l-.017-3.58c-.004-.269.125-.325.343-.325l3.528-.009c.227-.002.286.105.284.308l-.002 1.854h-.005zm4.931.057l.003 1.668c.005.253-.047.396-.343.393l-3.476-.003c-.252.002-.337-.122-.337-.349l-.003-3.592c-.001-.249.12-.333.352-.331l3.476.01c.25-.001.326.106.322.345l-.003 1.86h.009zm-2.058-3.04c-.547 0-1.095-.014-1.641.005-.316.012-.461-.071-.453-.425l.025-3.202c.008-.452.031-.463.478-.461l3.219.027c.281 0 .418.067.414.393l.009 3.267c.006.327-.125.397-.41.389l-1.641-.004v.012zm-4.912-4.083l1.706-.005c.194-.005.325.011.325.252l.006 3.59c.001.202-.107.25-.28.25l-3.538-.003c-.256.001-.323-.13-.323-.356L74 12.999c-.002-.292.103-.419.409-.409l1.705.005zM49.638 10.34l-.048-.012-.008-.048c.026.024.025.024.056.06z"/></g></g><defs><clipPath id="A"><path fill="#fff" d="M0 0h232v57H0z"/></clipPath></defs></svg>