<svg width="408" height="99" viewBox="0 0 408 99" fill="none" xmlns="http://www.w3.org/2000/svg">
<g clip-path="url(#clip0_66_322)">
<path d="M213.34 29.6027C213.154 31.1528 213.035 32.7144 212.769 34.2507C212.233 37.3512 210.429 39.7212 208.355 41.9927C205.904 44.6758 202.954 46.4737 199.44 47.0916C194.837 47.9009 190.375 47.6292 186.189 44.9993C183.336 43.2068 181.05 40.9646 179.561 38.0492C177.877 34.7502 177.289 31.2243 177.742 27.4165C178.16 23.907 179.414 20.9255 181.628 18.2923C184.19 15.2471 187.247 12.9553 191.282 12.1951C194.714 11.5485 198.122 11.5282 201.437 12.6707C203.401 13.3479 205.261 14.2761 206.825 15.7528C208.431 17.269 209.999 18.795 211.059 20.7552C212.547 23.5065 213.52 26.3897 213.34 29.6027ZM206.877 29.8456C207.404 23.4765 201.272 18.1803 195.64 18.0672C189.652 17.947 183.835 23.2895 183.817 29.5585C183.8 35.5702 189.097 41.1989 195.277 41.181C201.271 41.1636 207.172 36.1468 206.877 29.8456Z" fill="white"/>
<path d="M267.623 29.6609C267.623 24.3684 267.622 19.0758 267.623 13.7832C267.623 13.4925 267.649 13.2013 267.637 12.9113C267.604 12.0925 268 11.7865 268.802 11.791C273.571 11.8177 278.352 11.6168 283.105 11.8973C286.587 12.1027 289.214 14.078 291.101 17.1033C292.704 19.6719 292.653 22.4357 292.333 25.197C292.087 27.3166 290.843 29.0924 289.312 30.5575C288.446 31.3858 287.411 32.061 286.377 32.6797C285.778 33.0383 285.923 33.396 286.098 33.8301C286.551 34.9542 287.004 36.0788 287.488 37.1899C288.74 40.0651 290.009 42.9331 291.27 45.8042C291.363 46.0171 291.457 46.2302 291.542 46.4466C291.756 46.9907 291.648 47.3984 290.995 47.4064C289.193 47.4287 287.388 47.4561 285.589 47.3746C285.26 47.3597 284.835 46.8995 284.659 46.5436C283.973 45.1512 283.365 43.72 282.736 42.2997C280.975 38.3242 279.215 34.3484 277.464 30.3687C277.23 29.8376 277.007 29.295 276.851 28.7375C276.522 27.5605 276.742 27.246 277.937 27.2098C279.099 27.1745 280.269 27.1268 281.425 27.2136C284.872 27.4721 287.154 23.6625 285.678 20.6768C284.891 19.0836 283.451 18.2613 281.781 18.1428C279.524 17.9827 277.247 18.1051 274.979 18.0899C274.248 18.085 273.909 18.4102 273.931 19.141C273.946 19.6058 273.929 20.0715 273.929 20.5367C273.929 28.6793 273.93 36.8218 273.929 44.9643C273.929 45.4296 273.913 45.8952 273.927 46.36C273.947 47.0736 273.649 47.4398 272.9 47.4312C271.504 47.4154 270.108 47.4161 268.712 47.4348C267.995 47.4444 267.619 47.1578 267.643 46.4111C267.656 46.0044 267.639 45.597 267.639 45.1898C267.639 40.0135 267.639 34.8372 267.639 29.6609L267.623 29.6609Z" fill="white"/>
<path d="M313.027 47.3269C309.271 47.8062 305.984 46.4294 303.101 44.296C299.318 41.4968 296.713 37.8228 295.877 33.0182C295.086 28.4696 295.713 24.1542 298.139 20.2917C299.853 17.5615 302.103 15.2651 305.138 13.7371C309.847 11.3664 314.618 11.1543 319.489 12.7895C323.594 14.1677 326.7 16.9089 328.965 20.5879C329.743 21.8508 329.542 22.206 328.069 22.2313C326.499 22.2583 324.927 22.2145 323.357 22.245C322.604 22.2596 321.998 22.0379 321.504 21.4689C319.537 19.2033 316.864 18.374 314.047 18.1583C311.11 17.9333 308.454 18.8893 306.191 20.8668C304.773 22.1055 303.671 23.5728 302.809 25.2203C302.548 25.7187 302.456 26.3209 302.36 26.888C301.834 30.0145 302.1 33.0336 303.769 35.8053C306.015 39.5338 310.735 41.4734 315.177 40.9508C317.72 40.6516 319.64 39.5145 321.409 37.8682C321.986 37.3311 322.577 37.0853 323.441 37.1718C324.998 37.3274 326.577 37.24 328.146 37.2845C329.482 37.3224 329.611 37.5624 328.956 38.6715C326.131 43.4575 321.951 46.3238 316.507 47.2976C315.381 47.4991 314.188 47.3269 313.027 47.3269Z" fill="white"/>
<path d="M357.414 47.4865C356.371 47.431 355.1 47.7196 354.352 47.222C353.618 46.7342 353.388 45.4585 352.989 44.5067C352.495 43.3283 351.992 42.1469 351.61 40.9299C351.312 39.9768 350.751 39.6784 349.806 39.6934C347.362 39.7323 344.918 39.7191 342.475 39.6991C340.942 39.6866 340.794 39.4715 341.3 38.0969C341.761 36.8458 342.312 35.6235 342.7 34.3512C342.997 33.3818 343.571 33.0849 344.51 33.1307C345.438 33.1758 346.373 33.17 347.301 33.1162C348.239 33.0619 348.506 32.7579 348.193 31.9027C347.358 29.6145 346.438 27.3562 345.523 25.0978C345.426 24.8578 345.137 24.6954 344.938 24.497C344.681 24.7779 344.316 25.0158 344.185 25.3464C343.013 28.3129 341.892 31.2994 340.737 34.2728C339.182 38.2768 337.59 42.2662 336.064 46.2812C335.745 47.1192 335.294 47.482 334.398 47.4503C333.004 47.401 331.605 47.4667 330.21 47.4248C329.201 47.3946 328.987 47.0912 329.19 46.1165C329.273 45.7204 329.409 45.3309 329.559 44.9539C331.104 41.083 332.689 37.2276 334.2 33.3435C335.883 29.0187 337.498 24.6677 339.149 20.3303C340.015 18.0538 340.894 15.7822 341.766 13.508C342.398 11.8599 342.463 11.7778 344.132 11.8046C347.89 11.8651 347.015 11.2459 348.399 14.7466C350.02 18.8456 351.538 22.9855 353.13 27.096C355.562 33.3714 358.018 39.6373 360.467 45.9059C360.998 47.2658 360.933 47.3878 359.511 47.4328C358.813 47.4548 358.114 47.4366 357.416 47.4366C357.415 47.4532 357.414 47.4699 357.414 47.4865Z" fill="white"/>
<path d="M378.605 21.2505C378.14 21.2506 377.673 21.2277 377.21 21.2553C376.21 21.3148 375.537 21.131 375.048 20.014C374.332 18.3784 373.041 17.8699 371.682 18.267C370.179 18.7064 369.181 20.0469 369.262 21.476C369.316 22.4242 369.78 23.1653 370.513 23.673C371.316 24.2292 372.193 24.6913 373.076 25.1156C374.695 25.8937 376.421 26.4797 377.961 27.3844C381.887 29.6892 384.292 34.5486 382.714 39.8979C381.603 43.6628 379.169 46.0795 375.548 47.0648C371.598 48.1392 367.878 47.4968 364.738 44.5028C363.289 43.1211 362.4 41.4972 361.773 39.6643C361.698 39.4462 361.652 39.2149 361.621 38.9858C361.393 37.3155 361.872 36.8699 363.526 37.0843C364.5 37.2105 365.49 37.2734 366.471 37.2596C367.33 37.2475 367.828 37.5087 368.19 38.3544C369.044 40.3539 370.961 41.4098 372.909 41.1083C374.979 40.788 376.656 39.1397 376.907 37.0842C377.102 35.4961 376.366 34.2661 375.188 33.2863C373.74 32.0823 372.024 31.3118 370.276 30.7392C367.757 29.9143 365.681 28.5806 364.198 26.3898C363.817 25.8264 363.515 25.1673 363.346 24.5087C362.409 20.867 362.802 17.4135 365.419 14.5742C366.89 12.9777 368.866 12.0339 371.096 11.8089C375.27 11.388 378.464 13.0606 380.684 16.5238C381.286 17.4639 381.577 18.6609 381.784 19.7819C382.008 20.9987 381.737 21.2005 380.524 21.2494C380.176 21.2634 379.826 21.2506 379.477 21.2504C379.187 21.2502 378.896 21.2504 378.605 21.2505Z" fill="white"/>
<path d="M242.504 29.4745C242.504 24.2996 242.504 19.1248 242.504 13.95C242.504 13.6012 242.521 13.2512 242.5 12.9036C242.45 12.0566 242.894 11.7623 243.674 11.8037C243.964 11.819 244.255 11.7969 244.546 11.7968C250.418 11.7952 256.291 11.7942 262.163 11.7939C262.512 11.7939 262.861 11.8069 263.21 11.8054C263.861 11.8027 264.156 12.1331 264.154 12.7738C264.15 14.1691 264.136 15.5649 264.164 16.9597C264.181 17.7843 263.806 18.1051 263.009 18.0921C261.73 18.0713 260.451 18.0929 259.172 18.0929C256.381 18.0928 253.59 18.0803 250.799 18.0922C248.886 18.1003 248.789 18.1889 248.787 20.0286C248.779 26.5407 248.78 33.0529 248.792 39.565C248.795 41.1042 248.844 41.1505 250.356 41.1544C254.426 41.1647 258.496 41.1443 262.566 41.155C264.104 41.159 264.128 41.1951 264.149 42.7187C264.166 43.9394 264.136 45.1608 264.151 46.3816C264.16 47.1093 263.844 47.4433 263.106 47.4316C262.002 47.4142 260.897 47.4372 259.792 47.4372C254.617 47.4372 249.442 47.4414 244.268 47.4304C242.528 47.4268 242.51 47.4083 242.507 45.6967C242.499 40.2893 242.504 34.8819 242.504 29.4745Z" fill="white"/>
<path d="M216.026 11.7316C217.063 11.8048 218.349 11.5324 219.065 12.0496C219.764 12.5543 219.919 13.8528 220.247 14.825C221.878 19.6629 223.488 24.5084 225.107 29.3506C225.217 29.6805 225.309 30.027 225.486 30.3186C225.542 30.4105 225.974 30.4232 226.023 30.3437C226.231 30.0009 226.386 29.619 226.514 29.236C228.045 24.6683 229.548 20.091 231.106 15.5328C231.517 14.3314 232.094 13.1868 232.594 12.0161C233.8 11.9438 235.006 11.8271 236.212 11.8083C239.078 11.7636 239.152 11.8059 238.289 14.4699C236.663 19.4919 234.929 24.479 233.268 29.4899C231.862 33.7303 230.505 37.9868 229.106 42.2296C228.652 43.6062 228.097 44.9501 227.66 46.3316C227.413 47.112 227.011 47.4945 226.163 47.4447C225.305 47.3943 224.385 47.6049 224.032 46.4452C223.729 45.4477 223.344 44.4755 223.007 43.488C221.567 39.2609 220.115 35.0374 218.697 30.8026C217.557 27.3969 216.47 23.9735 215.341 20.5641C214.649 18.4733 213.923 16.3935 213.209 14.3101C213.152 14.1456 213.057 13.9949 212.998 13.8311C212.315 11.9191 212.396 11.8069 214.451 11.7997C214.974 11.7978 215.498 11.7994 216.021 11.7994C216.023 11.7768 216.024 11.7542 216.026 11.7316Z" fill="white"/>
<path d="M398.638 32.7482C398.638 37.0522 398.644 41.3563 398.636 45.6602C398.632 47.4141 398.618 47.4209 396.917 47.4361C395.812 47.4459 394.707 47.4296 393.602 47.4302C392.962 47.4306 392.634 47.1283 392.636 46.4793C392.637 46.014 392.627 45.5488 392.627 45.0835C392.627 36.7663 392.628 28.4491 392.629 20.1319C392.629 19.8993 392.638 19.6664 392.63 19.434C392.588 18.2057 392.543 18.1266 391.357 18.1032C389.671 18.0699 387.984 18.0992 386.297 18.0858C384.676 18.0728 384.669 18.0639 384.652 16.4242C384.64 15.2029 384.656 13.9815 384.649 12.7602C384.645 12.1094 384.959 11.8003 385.602 11.8052C385.893 11.8073 386.184 11.7967 386.475 11.7966C392.524 11.7945 398.572 11.7927 404.621 11.792C404.97 11.792 405.319 11.8002 405.668 11.8072C406.201 11.818 406.578 12.0243 406.58 12.6169C406.586 14.1866 406.597 15.7567 406.569 17.3261C406.556 18.0572 405.981 18.0881 405.439 18.0899C403.868 18.0951 402.298 18.0907 400.727 18.0924C400.32 18.0929 399.913 18.1 399.506 18.1075C398.947 18.1179 398.644 18.386 398.645 18.9641C398.646 19.4875 398.639 20.0109 398.639 20.5343C398.638 24.6056 398.638 28.6769 398.638 32.7482Z" fill="white"/>
<path d="M257.455 32.0506C255.716 32.0506 253.977 32.0699 252.239 32.0442C250.947 32.0252 250.897 31.9663 250.874 30.631C250.853 29.3565 250.886 28.0812 250.877 26.8063C250.873 26.0948 251.163 25.7497 251.912 25.753C255.621 25.7692 259.33 25.768 263.039 25.7592C263.726 25.7575 264.152 25.9767 264.149 26.7398C264.143 28.1885 264.149 29.6372 264.156 31.086C264.16 31.8693 263.682 32.0444 263.019 32.0413C261.164 32.0327 259.31 32.0383 257.455 32.0383L257.455 32.0506Z" fill="white"/>
<path d="M367.07 86.8572C366.095 86.7313 365.109 86.6639 364.149 86.4689C360.912 85.8116 359.161 83.6844 358.554 80.5524C358.043 77.9223 358.27 75.329 359.601 72.9741C360.928 70.6276 363.123 69.5298 365.757 69.3092C366.739 69.2269 367.734 69.3075 368.722 69.2903C371.827 69.2363 374.763 70.9297 375.82 74.6177C376.549 77.1632 376.481 79.7557 375.245 82.256C373.803 85.1728 371.379 86.4249 368.305 86.7286C367.901 86.7685 367.491 86.7341 367.084 86.7341C367.079 86.7751 367.074 86.8162 367.07 86.8572ZM372.65 78.1387C372.589 78.1278 372.529 78.1169 372.469 78.106C372.469 77.5831 372.517 77.0548 372.461 76.5381C372.115 73.3842 370.586 71.8445 367.393 71.7666C365.182 71.7125 363.163 72.8136 362.52 74.7335C362.108 75.9644 362.04 77.3445 362.007 78.6624C361.873 84.0445 366.848 85.02 370.165 83.3308C370.919 82.9466 371.604 82.1152 371.954 81.3268C372.386 80.353 372.435 79.2091 372.65 78.1387Z" fill="white"/>
<path d="M277.417 78.7125C275.849 78.7125 274.28 78.689 272.713 78.7195C271.296 78.7471 270.95 79.2653 271.396 80.5852C272.356 83.4344 275.366 84.9198 278.565 84.1199C279.631 83.8531 280.688 83.5411 281.764 83.3203C282.304 83.2094 282.959 83.0325 283.28 83.7489C283.56 84.3767 283.217 85.4144 282.512 85.6548C281.259 86.0815 279.971 86.4737 278.666 86.6587C276.229 87.0041 273.764 86.8465 271.493 85.8914C269.229 84.9391 268.035 82.9471 267.811 80.5747C267.644 78.809 267.746 76.9768 268.017 75.2188C268.585 71.5407 271.683 69.1747 275.267 69.306C276.59 69.3544 277.946 69.3701 279.223 69.6724C281.98 70.3248 283.659 72.5185 283.761 75.3305C283.786 76.0264 283.764 76.7241 283.761 77.421C283.757 78.2769 283.326 78.701 282.469 78.6998C280.785 78.6975 279.101 78.6991 277.417 78.6991C277.417 78.7036 277.417 78.708 277.417 78.7125ZM275.866 76.2958V76.2855C277.141 76.2855 278.415 76.29 279.69 76.2834C280.228 76.2807 280.718 76.0096 280.532 75.4675C280.202 74.5081 279.904 73.3732 279.205 72.7349C276.761 70.5007 272.411 71.7694 271.371 74.895C271.037 75.9015 271.261 76.245 272.391 76.2864C273.548 76.3288 274.707 76.2958 275.866 76.2958Z" fill="white"/>
<path d="M218.474 79.7191C218.474 81.5215 218.5 83.3244 218.465 85.1261C218.442 86.3232 218.222 86.4621 216.775 86.4371C215.471 86.4146 215.321 86.3137 215.306 85.0845C215.277 82.6428 215.331 80.1999 215.279 77.759C215.257 76.7214 215.167 75.6599 214.915 74.6574C214.211 71.8474 212.139 71.4764 209.444 72.5207C209.183 72.6219 208.979 72.8646 208.737 73.0236C207.093 74.1038 206.403 75.5336 206.56 77.5757C206.748 80.0029 206.613 82.4563 206.592 84.8981C206.58 86.22 205.74 86.9066 204.491 86.6484C203.87 86.5201 203.413 86.2099 203.425 85.4854C203.427 85.3692 203.42 85.253 203.416 85.1368C203.325 82.3537 203.207 79.5712 203.151 76.7874C203.109 74.7118 203.117 72.6338 203.178 70.5591C203.189 70.1751 203.486 69.5586 203.778 69.4706C204.538 69.2416 205.397 69.1241 206.083 69.7489C206.285 69.9335 206.425 70.2183 206.52 70.4838C206.714 71.0289 207.045 71.022 207.472 70.7942C207.728 70.6572 208.005 70.5519 208.243 70.3881C210.526 68.8138 213.006 68.9869 215.424 69.809C217.456 70.4998 218.319 72.2567 218.424 74.3133C218.517 76.1109 218.444 77.9168 218.444 79.7191C218.454 79.7191 218.464 79.7191 218.474 79.7191Z" fill="white"/>
<path d="M240.494 77.4694C240.494 76.1312 240.516 74.7927 240.488 73.4551C240.462 72.1977 240.425 72.1822 239.238 72.0825C239.122 72.0728 239.005 72.0863 238.889 72.0766C237.836 71.9886 237.475 71.7004 237.475 70.9529C237.475 69.976 237.913 69.4891 238.911 69.3554C239.945 69.2169 240.471 68.6247 240.49 67.5786C240.495 67.2878 240.482 66.9965 240.494 66.706C240.549 65.3755 240.723 65.1954 242.005 65.1271C243.833 65.0297 243.96 65.1385 243.951 67.0403C243.938 69.6651 243.851 69.653 246.525 69.6271C246.99 69.6226 247.457 69.6135 247.921 69.641C249.002 69.7053 249.164 69.8727 249.164 70.8528C249.164 71.8452 249.005 72.0232 247.93 72.0632C247 72.0978 246.068 72.0964 245.138 72.0754C244.37 72.058 243.919 72.3028 243.951 73.1643C244.055 76.0638 244.07 78.9686 244.258 81.8624C244.364 83.4958 245.174 84.0598 246.784 83.9791C247.015 83.9675 247.252 83.9551 247.475 83.8998C248.119 83.7405 248.867 83.2288 249.132 84.3508C249.398 85.4731 249.013 86.4046 248.011 86.5493C246.763 86.7295 245.446 86.7803 244.206 86.5876C242.04 86.2511 241.091 85.2477 240.783 83.0256C240.529 81.1925 240.504 79.3278 240.378 77.477C240.416 77.4745 240.455 77.4719 240.494 77.4694Z" fill="white"/>
<path d="M396.599 77.8367C396.599 75.6275 396.586 73.4182 396.606 71.2092C396.612 70.5419 396.416 69.7575 397.288 69.4116C398.107 69.0871 399.176 69.3583 399.687 70.1591C400.262 71.0594 400.822 70.7315 401.408 70.2761C402.643 69.3176 404.059 69.1783 405.542 69.3018C406.843 69.4101 407.672 71.0745 406.875 72.0912C406.691 72.3262 406.114 72.4373 405.79 72.3468C404.476 71.9792 403.376 71.9948 402.274 73.0539C401.008 74.2698 400.002 75.4743 400.044 77.3535C400.1 79.852 399.99 82.3548 400.072 84.8518C400.113 86.1121 399.805 86.7854 398.035 86.6944C396.955 86.6389 396.625 86.2959 396.612 85.1617C396.584 82.7203 396.604 80.2784 396.604 77.8367H396.599Z" fill="white"/>
<path d="M177.604 74.9093C177.603 71.6601 177.598 68.4109 177.609 65.1618C177.611 64.5426 177.443 63.7035 178.228 63.5303C178.981 63.3641 179.819 63.4857 180.6 63.6071C180.794 63.6373 180.991 64.1412 181.046 64.4522C181.125 64.9033 181.081 65.3771 181.081 65.8411C181.082 71.8752 181.081 77.9094 181.081 83.9435C181.081 84.1757 181.09 84.4082 181.078 84.6397C181.046 85.2584 181.248 86.0976 180.461 86.2726C179.707 86.4403 178.827 86.4151 178.105 86.1711C177.802 86.0685 177.634 85.1873 177.625 84.6564C177.579 81.8722 177.604 79.0867 177.604 76.3017C177.604 75.8376 177.604 75.3734 177.604 74.9093Z" fill="white"/>
<path d="M304.823 78.9274C304.695 76.4382 304.572 73.9487 304.438 71.4599C304.382 70.4139 304.739 69.5541 305.327 69.3854C306.469 69.0571 307.395 69.4559 307.788 70.6002C307.98 71.1602 308.121 71.282 308.579 70.9164C308.76 70.7718 308.999 70.6686 309.121 70.4863C309.833 69.4297 310.893 69.2694 312.038 69.2929C312.503 69.3024 312.969 69.2836 313.433 69.307C314.859 69.3789 315.595 70.7836 314.768 71.981C314.579 72.2535 313.964 72.3938 313.583 72.3377C312.725 72.2114 311.849 71.8045 311.093 72.4926C310.118 73.3799 308.895 74.1941 308.366 75.3165C307.83 76.4518 307.941 77.9225 307.896 79.2507C307.83 81.167 307.913 83.0883 307.855 85.0052C307.842 85.4567 307.577 86.2435 307.334 86.2818C306.571 86.4021 305.749 86.3034 304.983 86.1357C304.818 86.0995 304.72 85.4215 304.716 85.0375C304.69 83.003 304.703 80.9679 304.703 78.933C304.743 78.9311 304.783 78.9293 304.823 78.9274Z" fill="white"/>
<path d="M336.263 69.34C337.784 69.3444 338.133 69.7051 338.114 71.5285C338.067 76.048 337.986 80.5673 337.899 85.0863C337.872 86.4751 337.597 86.7159 336.256 86.7043C334.809 86.6918 334.45 86.3955 334.444 85.0321C334.425 80.3893 334.425 75.7464 334.439 71.1035C334.443 69.4781 334.62 69.3352 336.263 69.34Z" fill="white"/>
<path d="M336.145 66.4972C334.51 66.4854 334.052 66.082 334.081 64.6786C334.109 63.2759 334.775 62.7015 336.351 62.7191C337.777 62.7351 338.245 63.248 338.239 64.7898C338.232 66.2975 337.971 66.5105 336.145 66.4972Z" fill="white"/>
<path d="M87.1205 17.8834C89.6815 20.8689 91.8317 24.1169 93.4241 27.7235C94.0854 29.221 94.8418 30.6821 95.4138 32.2124C97.0518 36.5934 98.0092 41.1239 98.3312 45.8002C98.9493 54.7789 97.2521 63.2824 93.2772 71.3475C91.572 74.8074 89.4414 77.9832 86.9947 80.9553C86.8307 81.1544 86.6781 81.3629 86.5202 81.567C85.7998 82.3006 85.1147 83.0736 84.3521 83.7603C82.3339 85.5775 80.2822 87.3575 78.2439 89.1523C77.1384 89.8752 76.0457 90.6186 74.925 91.3171C71.2139 93.6303 67.2535 95.3677 63.0538 96.6105C57.4949 98.2556 51.823 98.8337 46.0683 98.4831C39.2794 98.0695 32.8149 96.32 26.7749 93.1738C17.1071 88.138 9.82376 80.7216 4.99561 70.9416C1.46539 63.7905 -0.155565 56.1897 0.0117252 48.2293C0.167637 40.8082 1.91307 33.7607 5.25169 27.1151C6.88489 23.8641 8.8426 20.8266 11.1649 18.031C17.5117 10.3908 25.3886 5.02432 34.9186 2.1386C36.2891 1.72362 37.6378 1.19353 39.1063 1.21658C42.711 0.0626681 46.4426 -0.00525959 50.1669 0.0192794C55.074 0.0515767 59.8735 0.87665 64.5263 2.43174C66.4706 3.0816 68.3776 3.86834 70.2451 4.71715C72.9622 5.95209 75.529 7.46736 77.9377 9.23922C77.7127 9.47318 77.5146 9.74276 77.2586 9.93557C74.7136 11.8519 72.3829 13.9989 70.2498 16.3643C70.0096 16.6307 69.698 16.8326 69.4194 17.0644C68.2235 16.4066 67.0419 15.721 65.829 15.0962C62.1476 13.1999 58.2157 12.0797 54.1284 11.5503C49.5421 10.9561 44.9653 11.1656 40.4663 12.2479C35.6657 13.4029 31.2067 15.3716 27.2017 18.2907C24.1467 20.5174 21.2962 22.9824 19.0944 26.0842C17.6476 28.1224 16.124 30.159 15.0525 32.3964C13.9036 34.7954 12.7726 37.2574 12.3103 39.9402C11.9935 41.7782 11.4351 43.5656 11.3087 45.4479C11.1048 48.4835 11.0501 51.5129 11.5204 54.5226C11.8248 56.47 12.1965 58.4134 12.6725 60.3251C12.938 61.3914 13.465 62.3951 13.8975 63.4172C15.5227 67.2578 17.4565 70.9019 20.3061 74.0154C22.7531 76.6891 25.2913 79.2408 28.4131 81.1334C30.0358 82.1172 31.6364 83.1204 33.3872 83.902C40.7276 87.1788 48.3296 88.1208 56.2305 86.6897C60.7843 85.8649 65.0295 84.2251 68.9676 81.7963C69.1983 81.654 69.3673 81.4116 69.565 81.2159C69.8914 81.0995 70.2581 81.0435 70.538 80.8571C72.9584 79.2457 75.1302 77.3354 77.1468 75.2473C77.4429 74.9406 77.6598 74.5574 77.9133 74.2097C78.7243 73.211 79.5921 72.2528 80.3366 71.2068C84.2077 65.7684 86.4626 59.7033 87.1471 53.0735C87.5969 48.7163 87.2901 44.3853 86.1847 40.1448C85.684 38.2241 85.0332 36.3296 84.2915 34.4873C82.8191 30.8302 80.7386 27.5278 78.1293 24.5653C78.3176 24.2606 78.4644 23.9184 78.7007 23.6571C80.8246 21.3081 83.2178 19.2736 85.8498 17.509C86.3237 17.1914 86.5749 17.4102 86.8976 17.647C86.9317 17.6985 86.9735 17.7429 87.0227 17.7803L87.0359 17.8632L87.1205 17.8834Z" fill="white"/>
<path d="M85.8498 17.5077C83.2178 19.2722 80.8246 21.3067 78.7007 23.6557C78.4645 23.917 78.3176 24.2592 78.1294 24.5639C77.9297 24.7099 77.684 24.82 77.5375 25.0076C76.177 26.7498 74.915 28.5509 73.7772 30.458C72.0376 33.3736 70.8919 36.5123 69.9411 39.7319C69.2304 42.1388 68.9644 44.6432 68.799 47.1366C68.5688 50.6086 68.8659 54.0612 69.6327 57.4604C69.8839 58.5738 70.2372 59.6642 70.5447 60.7647C71.2226 63.1907 72.2734 65.4701 73.4793 67.6601C74.3605 69.2604 75.4794 70.7308 76.5068 72.2493C76.9571 72.9149 77.4435 73.5561 77.9134 74.2084C77.6599 74.5562 77.4431 74.9394 77.1469 75.246C75.1303 77.334 72.9585 79.2443 70.5381 80.8558C70.2582 81.0422 69.8915 81.0982 69.5651 81.2146C69.3836 81.1092 69.1441 81.0467 69.0298 80.8917C67.8726 79.3229 66.7245 77.7472 65.5964 76.1574C64.0377 73.9607 62.7679 71.5889 61.7037 69.1289C60.3411 65.9794 59.2744 62.7197 58.6217 59.3356C58.0131 56.1805 57.5444 53.0136 57.6535 49.7881C57.7183 47.8728 57.7032 45.9474 57.9071 44.0462C58.138 41.8926 58.494 39.744 58.9474 37.6257C59.2699 36.119 59.822 34.6589 60.3103 33.1909C61.0537 30.9562 61.908 28.7654 63.0549 26.7002C63.5381 25.8303 63.9948 24.9431 64.5268 24.1037C65.4124 22.7061 66.3292 21.3271 67.2706 19.9663C67.9553 18.9767 68.701 18.0293 69.4195 17.0631C69.6981 16.8313 70.0097 16.6294 70.2499 16.363C72.383 13.9975 74.7137 11.8506 77.2587 9.93424C77.5147 9.74149 77.7128 9.47185 77.9378 9.2379C78.9612 8.60454 79.9897 7.9794 81.0069 7.33633C84.4269 5.17414 88.0932 3.52749 91.9297 2.28664C94.4188 1.48156 96.9735 0.871994 99.5865 0.598215C101.894 0.356445 104.207 0.00830175 106.518 0.000313643C111.445 -0.0167545 116.294 0.662579 121.03 2.09193C125.261 3.36888 129.276 5.13425 132.983 7.52074C135.015 8.82895 136.841 10.453 138.804 11.8739C140.67 13.2249 142.067 15.0452 143.707 16.6201C144.156 17.0513 144.529 17.5664 144.909 18.0641C145.192 18.4354 145.092 18.6801 144.638 18.7727C144.423 18.8164 144.196 18.8078 143.974 18.8079C139.572 18.8101 135.169 18.8017 130.766 18.8197C130.104 18.8224 129.516 18.6575 128.997 18.2828C125.918 16.0621 122.578 14.3198 118.984 13.1432C116.961 12.481 114.828 12.1475 112.735 11.7118C109.853 11.1119 106.92 11.1235 104.016 11.3215C101.859 11.4685 99.7224 11.9673 97.5875 12.3668C95.3583 12.7838 93.3122 13.7647 91.2123 14.5704C90.562 14.8199 89.9572 15.1915 89.339 15.521C88.7232 15.8493 88.1234 16.2081 87.5039 16.529" fill="white"/>
<path d="M78.2438 89.1509C80.2822 87.3561 82.3339 85.5761 84.352 83.7588C85.1146 83.0721 85.7997 82.2992 86.5201 81.5656C86.9991 81.8269 87.481 82.0831 87.9566 82.3503C92.2143 84.742 96.7454 86.3492 101.594 86.9689C103.49 87.2112 105.413 87.403 107.319 87.367C109.447 87.3268 111.577 87.1247 113.687 86.7198C116.603 86.1607 119.449 85.3793 122.133 84.1328C123.999 83.2665 125.811 82.2497 127.542 81.1373C128.889 80.2718 130.205 79.7751 131.853 79.818C135.954 79.9247 140.06 79.8479 144.164 79.8602C144.51 79.8612 144.856 79.9775 145.202 80.0403C145.005 80.3388 144.838 80.6631 144.606 80.9314C143.666 82.0178 142.754 83.1343 141.741 84.1494C140.728 85.1642 139.628 86.0949 138.53 87.0204C136.726 88.5418 134.836 89.9455 132.821 91.1857C130.205 92.7965 127.481 94.1988 124.595 95.2332C122.202 96.0905 119.772 96.8833 117.305 97.4801C115.419 97.9364 113.454 98.1177 111.512 98.2819C109.531 98.4494 107.534 98.5158 105.546 98.4961C104.079 98.4816 102.616 98.1882 101.148 98.1452C99.4364 98.0951 97.7876 97.7161 96.1242 97.3973C95.5462 97.2866 94.9736 97.1399 94.4069 96.9801C91.5259 96.1677 88.6908 95.241 85.9814 93.9366C83.6183 92.7989 81.3245 91.554 79.175 90.0527C78.8252 89.8084 78.5523 89.4542 78.2438 89.1509Z" fill="white"/>
<path d="M145.557 58.6619C145.557 63.6553 145.557 68.6486 145.557 73.642C145.557 73.753 145.56 73.864 145.558 73.9749C145.54 74.9552 145.394 75.1193 144.466 74.9591C143.123 74.7274 141.787 74.4519 140.454 74.1635C139.013 73.8517 137.583 73.4918 136.143 73.1755C135.197 72.9679 135.136 72.9314 135.135 71.9346C135.131 63.0945 135.13 54.2544 135.133 45.4142C135.133 44.4129 135.189 44.3602 136.129 44.1585C138.794 43.5863 141.459 43.0131 144.124 42.4415C144.268 42.4106 144.413 42.3819 144.559 42.3686C145.408 42.2919 145.545 42.3923 145.551 43.2379C145.566 45.2721 145.557 47.3066 145.557 49.3409C145.557 52.4479 145.557 55.5549 145.557 58.6619ZM136.475 57.6882C136.6 57.9986 136.794 58.5042 137.019 58.9952C137.041 59.0439 137.348 59.0458 137.371 58.9975C137.601 58.5113 137.881 58.0264 137.985 57.5087C138.106 56.9105 137.666 56.3791 137.214 56.4039C136.801 56.4264 136.473 56.8977 136.475 57.6882Z" fill="white"/>
<path d="M129.593 58.7799C129.592 53.2324 129.592 47.685 129.592 42.1375C129.592 41.9526 129.589 41.7676 129.593 41.5828C129.614 40.6163 129.618 40.5955 130.605 40.5942C135.117 40.5882 139.629 40.5899 144.141 40.6013C144.413 40.602 144.684 40.7099 144.956 40.768C144.706 40.8636 144.464 40.9978 144.205 41.0487C141.963 41.489 139.719 41.9179 137.474 42.343C136.245 42.5758 135.014 42.799 133.782 43.0188C132.889 43.1783 132.693 43.3965 132.692 44.3588C132.688 47.9092 132.694 51.4596 132.695 55.01C132.695 60.9643 132.694 66.9185 132.694 72.8728C132.694 74.0373 132.683 74.0864 133.833 74.3604C135.518 74.7617 137.221 75.0826 138.916 75.441C140.828 75.8453 142.74 76.2529 144.651 76.6608C144.723 76.6761 144.797 76.6988 144.859 76.7366C144.938 76.7848 145.005 76.8519 145.077 76.9108C145.007 76.9292 144.937 76.9608 144.865 76.9636C144.644 76.9725 144.422 76.9724 144.2 76.9724C139.799 76.9728 135.398 76.9727 130.997 76.9726C130.812 76.9726 130.626 76.9826 130.442 76.9686C129.745 76.9157 129.616 76.8062 129.6 76.088C129.576 75.053 129.593 74.0171 129.593 72.9815C129.593 68.2477 129.593 63.5137 129.593 58.7799Z" fill="white"/>
<path d="M137.168 34.0223C137.168 35.0174 137.162 36.0126 137.17 37.0077C137.174 37.4249 137.107 37.6886 136.572 37.6794C134.545 37.6445 132.518 37.6448 130.491 37.6527C130.046 37.6544 129.914 37.4535 129.914 37.0527C129.912 34.9886 129.912 32.9244 129.884 30.8606C129.878 30.3959 130.103 30.2989 130.487 30.2987C132.551 30.2977 134.615 30.2984 136.679 30.2823C137.077 30.2792 137.181 30.4646 137.178 30.8156C137.171 31.8844 137.176 32.9534 137.176 34.0223H137.168Z" fill="white"/>
<path d="M145.822 34.1205C145.822 35.0819 145.81 36.0435 145.827 37.0046C145.836 37.4413 145.744 37.6893 145.226 37.684C143.192 37.663 141.158 37.6665 139.125 37.6792C138.682 37.682 138.533 37.4685 138.533 37.0758C138.531 35.0052 138.533 32.9347 138.527 30.8642C138.526 30.4338 138.737 30.2881 139.145 30.2911C141.179 30.3058 143.213 30.3151 145.246 30.3077C145.685 30.3061 145.819 30.4908 145.812 30.9036C145.796 31.9757 145.807 33.0482 145.807 34.1205L145.822 34.1205Z" fill="white"/>
<path d="M142.211 28.8621C141.251 28.8621 140.29 28.8372 139.331 28.8716C138.777 28.8915 138.523 28.7481 138.535 28.1361C138.573 26.2905 138.546 24.4436 138.579 22.5979C138.593 21.8167 138.633 21.7979 139.419 21.801C141.302 21.8083 143.185 21.8466 145.068 21.8476C145.562 21.8478 145.803 21.9639 145.796 22.5264C145.772 24.4095 145.776 26.2935 145.811 28.1764C145.822 28.7417 145.591 28.8635 145.092 28.8497C144.132 28.8232 143.171 28.842 142.211 28.842L142.211 28.8621Z" fill="white"/>
<path d="M133.59 21.8008C134.587 21.8008 135.586 21.8153 136.583 21.7928C136.924 21.7851 137.154 21.8121 137.154 22.2277C137.152 24.2975 137.156 26.3673 137.165 28.4371C137.166 28.7871 136.977 28.87 136.673 28.869C134.604 28.8619 132.534 28.8542 130.464 28.863C130.015 28.8649 129.897 28.6375 129.897 28.2476C129.896 26.3256 129.894 24.4036 129.879 22.4817C129.875 21.9768 130.06 21.7567 130.596 21.7744C131.593 21.8073 132.592 21.7838 133.59 21.7838C133.59 21.7895 133.59 21.7951 133.59 21.8008Z" fill="white"/>
<path d="M87.1205 17.8826L87.036 17.8622L87.0228 17.7793C87.0678 17.8208 87.0667 17.8208 87.1205 17.8826Z" fill="white"/>
</g>
<defs>
<clipPath id="clip0_66_322">
<rect width="407.188" height="98.5801" fill="white"/>
</clipPath>
</defs>
</svg>
