<svg width="66" height="60" viewBox="0 0 66 60" fill="none" xmlns="http://www.w3.org/2000/svg">
<path d="M66 59.4013C65.6288 59.8892 65.1271 60.0017 64.5359 59.9999C60.1333 59.9844 55.7289 59.993 51.3262 59.9895C51.1131 59.9895 50.8949 59.9895 50.6852 59.948C50.1731 59.8494 49.8896 59.5207 49.8948 58.9999C49.8999 58.4791 50.192 58.1573 50.7041 58.0673C50.9138 58.031 51.132 58.0327 51.3451 58.0327C52.8264 58.0293 54.3094 58.0327 55.7907 58.0327C56.0193 58.0327 56.2478 58.0327 56.5091 58.0327V50.7523H25.6423V58.0327C25.9396 58.0327 26.2146 58.0327 26.4895 58.0327C33.0832 58.0327 39.6769 58.0327 46.2723 58.0327C46.5077 58.0327 46.7466 58.0241 46.9803 58.0466C47.5508 58.1037 47.9289 58.486 47.9409 58.9913C47.9512 59.4947 47.5783 59.8978 47.0181 59.9705C46.848 59.993 46.6744 59.9895 46.5043 59.9895C36.8603 59.9895 27.2164 59.9895 17.5725 59.9895C16.4057 59.9895 16.129 59.7075 16.129 58.5379C16.129 54.2005 16.129 49.8613 16.129 45.5238C16.129 43.0358 17.1979 41.5047 19.5161 40.5808C19.6914 40.5116 19.8581 40.1828 19.8684 39.9666C19.9285 38.6741 19.8443 37.3696 19.9887 36.0893C20.3152 33.2 22.7983 30.9871 25.6887 30.9144C26.8693 30.885 28.0516 30.8971 29.2322 30.9075C29.9333 30.9127 30.3423 31.2933 30.332 31.8937C30.3217 32.482 29.9058 32.8418 29.1961 32.8487C28.1221 32.8574 27.048 32.8436 25.974 32.8522C23.6678 32.8712 21.9305 34.5287 21.8308 36.8471C21.7844 37.925 21.8016 39.0063 21.836 40.0842C21.8411 40.2641 22.0577 40.5289 22.2364 40.5946C24.3965 41.3957 25.5495 42.9874 25.5839 45.3023C25.6011 46.4408 25.5874 47.5792 25.5874 48.7436H56.5451C56.5451 48.1726 56.5365 47.6173 56.5469 47.0636C56.5658 46.1155 56.4747 45.1432 56.65 44.2245C57.0297 42.2365 58.3323 41.0375 60.1934 40.5012C60.1934 38.9873 60.3429 37.4907 60.1556 36.0357C59.9167 34.1637 58.1502 32.8591 56.1688 32.8557C51.6373 32.8453 47.104 32.8522 42.5725 32.8522C39.5652 32.8522 36.5579 32.8643 33.5523 32.8349C33.2018 32.8314 32.7636 32.6948 32.5247 32.4595C32.0092 31.9508 32.3701 31.0598 33.0987 30.9248C33.2654 30.8937 33.4406 30.9058 33.6125 30.9058C41.1083 30.9058 48.6042 30.8971 56.1001 30.9093C59.0627 30.9144 61.5235 32.8107 62.0613 35.6308C62.2882 36.8229 62.1954 38.0772 62.2401 39.3056C62.2538 39.6915 62.2418 40.0773 62.2418 40.4804C63.7746 40.8887 64.8985 41.7573 65.5584 43.176C65.7371 43.5601 65.8505 43.977 65.9949 44.3784V59.4013H66ZM23.6524 58.0033C23.6524 57.6729 23.6524 57.4185 23.6524 57.1625C23.6524 53.4115 23.6524 49.6606 23.6524 45.9096C23.6524 45.5428 23.6541 45.176 23.618 44.811C23.4994 43.6379 22.6368 42.6794 21.4923 42.4234C19.6776 42.0168 18.0726 43.3369 18.0674 45.2764C18.0554 49.3509 18.064 53.4254 18.0674 57.4999C18.0674 57.6625 18.0984 57.8269 18.1173 58.0033H23.6558H23.6524ZM64.0565 58.0033C64.0565 53.5915 64.0771 49.2609 64.0427 44.9304C64.0324 43.7366 63.0907 42.7088 61.9531 42.4338C60.1092 41.9856 58.499 43.2919 58.4904 45.2868C58.475 49.3388 58.4853 53.3925 58.487 57.4445C58.487 57.6296 58.5162 57.813 58.5317 58.0033H64.0565Z" fill="#C49D5A"/>
<path d="M0.0117282 19.5127C0.439621 17.7151 0.881262 15.9192 1.29541 14.1181C1.99653 11.0748 2.67876 8.02803 3.37129 4.98124C3.54657 4.2096 3.83527 3.97257 4.62575 3.97257C7.54539 3.96911 10.4668 3.96911 13.3864 3.97257C14.158 3.97257 14.4484 4.18191 14.6168 4.91896C15.7252 9.74779 16.8284 14.5766 17.9196 19.4089C18.1396 20.383 17.7581 20.8276 16.7528 20.8363C16.0053 20.8432 15.2578 20.8363 14.4123 20.8363C14.4123 21.1443 14.4123 21.3917 14.4123 21.6408C14.4123 24.8779 14.4123 28.1133 14.4089 31.3504C14.4089 31.6065 14.4037 31.8729 14.3401 32.1186C14.2164 32.5978 13.8624 32.8487 13.3864 32.8193C12.8863 32.7864 12.5529 32.4958 12.4928 31.9646C12.4687 31.7518 12.4739 31.5338 12.4739 31.3175C12.4739 28.1029 12.4739 24.8883 12.4739 21.672V20.8761H10.0079V54.479C10.3035 54.4928 10.5922 54.5084 10.8826 54.5205C13.3726 54.6174 15.2251 56.4444 15.2286 58.8078C15.2286 59.5968 14.9003 59.9757 14.1081 59.9791C10.7159 59.993 7.32199 59.993 3.92978 59.9791C3.07743 59.9757 2.74062 59.5639 2.7853 58.7005C2.91075 56.3475 4.63778 54.652 7.04533 54.5257C7.34262 54.5101 7.63991 54.524 7.9836 54.524V20.8398C7.68802 20.8398 7.41651 20.8398 7.14328 20.8398C5.21003 20.8398 3.27849 20.8242 1.34524 20.8484C0.75066 20.8553 0.29699 20.6996 0.0100098 20.1598C0.0100098 19.9435 0.0100098 19.7273 0.0100098 19.5127H0.0117282ZM2.20446 18.8553H15.8094C14.823 14.5143 13.8469 10.2253 12.8726 5.93801H5.14644C4.17037 10.2219 3.19601 14.5005 2.20446 18.8553ZM13.1458 57.9894C12.7179 57.1365 12.1371 56.5707 11.2624 56.5344C9.76391 56.4704 8.26027 56.4687 6.76178 56.5344C5.89053 56.5725 5.28048 57.1088 4.90414 57.9894H13.1441H13.1458Z" fill="#C49D5A"/>
<path d="M28.0052 1.97077C28.6513 2.6213 29.148 3.14554 29.679 3.63344C29.7975 3.74244 30.0381 3.75109 30.222 3.75109C37.4584 3.75628 44.6947 3.75801 51.9311 3.74244C52.1751 3.74244 52.4604 3.60403 52.6546 3.44139C53.1306 3.04346 53.5636 2.59362 54.1221 2.06247C53.8162 2.01748 53.6633 1.97596 53.5104 1.97423C52.6511 1.96731 51.7919 1.98807 50.9344 1.96039C50.2711 1.93963 49.881 1.54515 49.8896 0.975936C49.8982 0.43094 50.2728 0.0347371 50.9 0.0278165C52.7457 0.00532463 54.593 0.00359448 56.4403 0.0295467C57.083 0.0381974 57.3975 0.406718 57.449 1.06071C57.4628 1.232 57.4542 1.40501 57.4542 1.57803C57.4542 8.80658 57.4542 16.0351 57.4542 23.2637C57.4542 24.6028 57.2239 24.8295 55.8715 24.8295C45.9715 24.8295 36.0733 24.8295 26.1733 24.8295C24.9257 24.8295 24.6783 24.5803 24.6783 23.3087C24.6783 16.0593 24.6783 8.80831 24.6783 1.559C24.6783 0.252735 24.9189 0.0122452 26.2249 0.0122452C32.9457 0.0122452 39.6666 0.0122452 46.3891 0.0139754C46.6675 0.0139754 47.0129 -0.0483099 47.2071 0.0901018C47.5061 0.30291 47.8326 0.633367 47.9082 0.967286C48.0096 1.41885 47.6969 1.7943 47.2174 1.90675C46.9493 1.96904 46.6641 1.96731 46.3857 1.96731C40.567 1.97077 34.7467 1.96904 28.928 1.96904H28.0052V1.97077ZM40.0601 15.8811C40.3436 15.568 40.5739 15.3154 40.8025 15.0611C42.2253 13.4745 43.6362 11.8776 45.0711 10.3032C46.3049 8.95018 48.044 8.95537 49.2985 10.2962C49.9446 10.9883 50.5718 11.6976 51.2094 12.3984C51.3589 12.561 51.5135 12.7202 51.7541 12.9728V5.76671H30.4076V15.3604C30.509 15.3015 30.5536 15.2877 30.5794 15.2583C31.3716 14.3794 32.1587 13.4953 32.956 12.6198C34.2792 11.1648 35.843 11.1786 37.1662 12.651C38.1148 13.7081 39.06 14.7669 40.0584 15.8811H40.0601ZM41.3713 17.3397C41.7699 17.786 42.1652 18.184 42.5054 18.6234C42.8096 19.0162 43.1584 19.1511 43.6568 19.1459C46.1262 19.12 48.5956 19.1355 51.065 19.1321C51.2918 19.1321 51.5187 19.1131 51.7919 19.1009C51.7919 18.0905 51.8022 17.1441 51.7816 16.1995C51.7782 16.0282 51.6785 15.8258 51.5616 15.6926C50.3433 14.3275 49.1197 12.9676 47.8825 11.6198C47.3875 11.08 46.9785 11.099 46.4682 11.6475C46.0729 12.0731 45.6914 12.5125 45.3031 12.9451C43.9988 14.4036 42.6962 15.8621 41.373 17.3414L41.3713 17.3397ZM27.964 22.8381H54.129C53.5207 22.2429 53.0292 21.7377 52.5051 21.2688C52.3659 21.1442 52.1201 21.0889 51.9242 21.0889C44.6879 21.0802 37.4515 21.0802 30.2168 21.0889C30.0192 21.0889 29.7769 21.1442 29.6343 21.2654C29.1016 21.7273 28.6032 22.229 27.9657 22.8363L27.964 22.8381ZM30.2426 19.0975H40.2199C40.2079 19.0214 40.2165 18.9694 40.1941 18.9452C38.6613 17.2289 37.1301 15.5126 35.5921 13.8032C35.2003 13.3672 34.8171 13.4451 34.4476 13.8586C33.1743 15.2877 31.8854 16.7012 30.6293 18.1459C30.4351 18.3691 30.3904 18.722 30.2443 19.0975H30.2426ZM26.6528 21.5007C27.213 20.9297 27.6735 20.5076 28.0722 20.0352C28.2475 19.8276 28.3918 19.5162 28.3936 19.2515C28.4125 14.6995 28.409 10.1457 28.4039 5.5937C28.4039 5.40684 28.4039 5.16462 28.2956 5.04524C27.8059 4.49678 27.2783 3.98293 26.6528 3.34278V21.5007ZM55.4745 3.52617C55.4247 3.48984 55.3766 3.45524 55.3268 3.4189C54.9865 3.79607 54.6772 4.21304 54.2957 4.54177C53.8455 4.92759 53.7114 5.36186 53.7149 5.95011C53.7389 10.2028 53.7286 14.4538 53.7286 18.7065C53.7286 19.7255 54.5122 20.8778 55.4763 21.2878V3.52617H55.4745Z" fill="#C49D5A"/>
<path d="M40.0583 6.7909C41.5757 6.78744 42.8027 8.01757 42.7958 9.53664C42.7889 11.0523 41.5516 12.2737 40.0343 12.2634C38.5444 12.253 37.3483 11.0488 37.338 9.54356C37.3277 8.00719 38.5272 6.79263 40.0566 6.7909H40.0583ZM40.0875 10.3239C40.5584 10.2547 40.8351 9.9934 40.8522 9.51588C40.8694 9.06431 40.4673 8.70444 40.0068 8.74597C39.5187 8.79095 39.2696 9.0868 39.2902 9.56605C39.3108 10.054 39.6201 10.2841 40.0858 10.3239H40.0875Z" fill="#C49D5A"/>
</svg>
