<svg width="57" height="60" viewBox="0 0 57 60" fill="none" xmlns="http://www.w3.org/2000/svg">
<path d="M46.2951 0C46.7475 0.239492 47.2459 0.417937 47.6431 0.729432C48.436 1.35399 48.7458 2.23213 48.7412 3.25114C48.7289 5.9059 48.7366 8.56066 48.7366 11.217C48.7366 15.5122 48.7366 19.8074 48.7366 24.1026C48.7366 24.2982 48.7412 24.4939 48.7243 24.688C48.6798 25.1983 48.3731 25.4754 47.8992 25.491C47.4468 25.5051 47.1386 25.239 47.0511 24.7757C47.0082 24.5487 47.0159 24.3092 47.0159 24.076C47.0143 17.2434 47.0159 10.4093 47.0143 3.57672C47.0143 2.15699 46.6263 1.75627 45.2537 1.75627C31.3285 1.75627 17.4033 1.75627 3.47959 1.75627C2.12388 1.75627 1.7236 2.15699 1.7236 3.52037C1.7236 5.57092 1.7236 7.61991 1.7236 9.67046C1.7236 9.86456 1.73281 10.0649 1.69446 10.2528C1.59938 10.7364 1.29572 11.0244 0.809569 10.9931C0.331081 10.9634 0.0274248 10.6676 0.0136222 10.162C-0.00784838 9.34331 0.00288693 8.52152 0.00135331 7.70287C0.00135331 6.41462 0.00135331 5.12638 0.00135331 3.83656C0.00135331 1.56531 0.450703 0.862484 2.44287 0C17.0613 0 31.6782 0 46.2951 0Z" fill="#C49D5A"/>
<path d="M8.70614 58.2323C9.76126 58.2323 10.6584 58.2323 11.5556 58.2323C15.7654 58.2323 19.9736 58.2307 24.1834 58.2386C24.4441 58.2386 24.7769 58.2323 24.9456 58.3826C25.1618 58.5735 25.3903 58.9445 25.3505 59.1934C25.3045 59.4736 24.9901 59.7334 24.7432 59.9432C24.6373 60.034 24.4119 59.9886 24.2401 59.9886C17.8695 59.9901 11.4973 59.9948 5.12668 59.9886C2.59315 59.9854 0.594846 58.356 0.0994881 55.8906C0.012072 55.4555 0.00593757 54.9984 0.00593757 54.5507C0.00133673 41.2519 0.00133673 27.953 0.00287034 14.6542C0.00287034 14.4789 -0.0017305 14.302 0.0182065 14.1283C0.0703494 13.6806 0.337199 13.416 0.76201 13.3691C1.21749 13.319 1.55029 13.5428 1.66224 14.003C1.72512 14.2629 1.72052 14.5446 1.72205 14.8154C1.72512 28.0548 1.72819 41.2957 1.71745 54.5351C1.71745 55.5791 1.92909 56.5152 2.68363 57.254C3.6176 58.1666 4.72794 58.4781 5.96097 58.0648C7.18326 57.6547 7.9654 56.7625 8.17397 55.4633C8.2936 54.7198 8.25832 53.9465 8.26292 53.1858C8.27979 51.0413 9.48521 49.7984 11.574 49.7969C20.1638 49.7969 28.7551 49.7969 37.3449 49.7969C37.5718 49.7969 37.8004 49.7969 38.0503 49.7969C38.1976 49.3195 38.1286 49.0393 37.6378 48.8279C37.0796 48.5885 36.5597 48.241 36.0582 47.8888C35.7944 47.7025 35.6226 47.715 35.345 47.8528C34.8221 48.1142 34.2761 48.4131 33.7133 48.4914C32.7609 48.626 32.0064 48.1564 31.5003 47.3253C31.1276 46.7132 30.7764 46.084 30.4405 45.45C29.778 44.2009 30.1123 42.7827 31.3331 42.1144C32.0294 41.7324 32.376 41.3301 32.1889 40.5052C32.1137 40.1718 32.1137 39.7883 32.1981 39.458C32.3576 38.8288 32.0493 38.5752 31.5708 38.3013C30.0525 37.4341 29.7151 36.0911 30.5801 34.5477C30.8745 34.0233 31.1644 33.4958 31.4742 32.9792C32.2149 31.7473 33.586 31.3404 34.796 32.0964C35.4509 32.5065 35.9401 32.6036 36.5413 32.0432C36.8556 31.7505 37.2881 31.572 37.693 31.4045C38.0365 31.2621 38.1255 31.0539 38.127 30.6954C38.1301 30.2133 38.1362 29.7077 38.2727 29.2538C38.5564 28.3084 39.4214 27.6807 40.3891 27.6478C41.116 27.6228 41.843 27.6274 42.5699 27.64C43.9793 27.6666 45.0467 28.6872 44.9976 30.1147C44.97 30.9381 45.1709 31.4186 45.9592 31.6612C46.2951 31.7646 46.5849 32.0197 46.9652 32.2467C46.9852 32.04 47.0128 31.882 47.0128 31.7223C47.0174 30.7659 47.0036 29.8079 47.0205 28.8515C47.0312 28.2082 47.3747 27.8482 47.9084 27.8607C48.4252 27.8732 48.7212 28.2129 48.732 28.8453C48.7488 29.8017 48.7488 30.7581 48.758 31.7129C48.758 31.7301 48.7749 31.7473 48.8025 31.799C48.9313 31.7849 49.0755 31.7661 49.2197 31.752C50.2978 31.6487 51.1229 32.062 51.678 33.0137C52.0001 33.5662 52.313 34.125 52.6212 34.687C53.3619 36.0394 53.0307 37.4638 51.7026 38.198C51.0569 38.5548 50.7947 38.9211 50.9266 39.6866C51.0232 40.2501 50.7287 40.9341 50.9404 41.4115C51.1351 41.8498 51.8023 42.0486 52.2117 42.4102C53.023 43.1271 53.2485 44.3027 52.7546 45.2935C52.3912 46.0229 51.9955 46.7398 51.5538 47.4223C50.9066 48.421 49.9435 48.6652 48.7856 48.4304V49.7656C48.9651 49.7734 49.166 49.7906 49.3669 49.7906C50.8591 49.7922 52.3513 49.7875 53.8435 49.7937C55.7114 49.8016 56.9828 51.0757 56.9905 52.9854C56.9951 53.9778 57.0442 54.9953 56.8632 55.9595C56.4215 58.3184 54.4293 59.9714 52.0814 59.9776C44.2952 59.9964 36.5075 59.987 28.7214 59.9839C28.065 59.9839 27.6754 59.6239 27.6954 59.0729C27.7153 58.5313 28.0972 58.2307 28.7873 58.2292C36.4784 58.2276 44.1695 58.2292 51.8605 58.226C53.5184 58.226 54.8649 57.2759 55.1471 55.7043C55.3311 54.6838 55.2606 53.6068 55.2222 52.5581C55.2023 52.0227 54.6594 51.6173 54.0966 51.5578C53.9064 51.5375 53.7147 51.5469 53.523 51.5469C39.5947 51.5469 25.6664 51.5469 11.7381 51.5469C10.3854 51.5469 9.98517 51.9507 9.98364 53.3141C9.98364 53.4894 9.9775 53.6663 9.98364 53.8416C10.0465 55.3991 9.84101 56.8799 8.70154 58.226L8.70614 58.2323ZM43.3045 49.7656C43.3045 49.332 43.3106 48.9266 43.303 48.5212C43.2938 48.0484 43.5407 47.7917 43.9333 47.5757C44.8673 47.0607 45.792 46.5223 46.6923 45.9494C47.0741 45.7052 47.4131 45.6191 47.8087 45.8554C48.2381 46.1106 48.6645 46.372 49.1 46.6146C49.5985 46.8917 49.919 46.8087 50.2119 46.3203C50.5309 45.7881 50.8361 45.2465 51.1275 44.6987C51.4112 44.1665 51.3176 43.8487 50.8008 43.5294C50.3929 43.2774 49.9788 43.0316 49.5617 42.7953C49.1353 42.5542 48.9819 42.1879 49.0786 41.7152C49.2979 40.6492 49.2917 39.5864 49.074 38.5204C48.9819 38.0712 49.1353 37.7174 49.5356 37.4842C49.9665 37.2337 50.4005 36.9848 50.8238 36.7203C51.31 36.4166 51.4051 36.0958 51.1382 35.5917C50.8392 35.0251 50.5186 34.471 50.1966 33.9168C49.9343 33.466 49.5662 33.3815 49.123 33.6351C48.6906 33.884 48.2581 34.1344 47.8317 34.3943C47.4146 34.6478 47.0665 34.5539 46.6662 34.2972C45.7844 33.729 44.878 33.1968 43.9578 32.699C43.5407 32.4736 43.2907 32.2091 43.3014 31.7113C43.3122 31.223 43.3122 30.7346 43.3014 30.2478C43.2876 29.6655 43.0576 29.415 42.5086 29.4009C41.8782 29.3853 41.2464 29.3962 40.6145 29.3978C40.0977 29.3994 39.8416 29.6702 39.8401 30.1945C39.8385 30.7017 39.8416 31.2104 39.8355 31.7176C39.8293 32.1981 39.587 32.4752 39.1637 32.7006C38.239 33.1937 37.3357 33.7306 36.4538 34.2988C36.052 34.5586 35.7024 34.6432 35.2883 34.3911C34.8619 34.1313 34.431 33.8777 33.997 33.6304C33.5538 33.3784 33.1872 33.4676 32.9265 33.92C32.606 34.4741 32.2839 35.0282 31.9803 35.5917C31.7134 36.0911 31.807 36.3979 32.3039 36.7109C32.7103 36.9661 33.1259 37.2087 33.54 37.4497C33.9525 37.6892 34.0752 38.0289 34.0553 38.5204C34.0093 39.5848 34.0016 40.6555 34.0537 41.7183C34.0798 42.238 33.9433 42.5855 33.5139 42.8344C33.1152 43.0645 32.7149 43.2946 32.3238 43.5388C31.7978 43.8659 31.7104 44.168 31.9987 44.7018C32.2931 45.2481 32.5968 45.7897 32.9158 46.3235C33.2056 46.8087 33.5308 46.8917 34.0292 46.6177C34.4325 46.3955 34.8343 46.1685 35.2208 45.9149C35.6947 45.6034 36.0735 45.7161 36.529 46.0214C37.3679 46.5849 38.2482 47.092 39.1438 47.5554C39.5947 47.7886 39.837 48.0766 39.8385 48.5822C39.8385 48.9673 39.8385 49.3523 39.8385 49.7671H43.306L43.3045 49.7656ZM46.9974 48.0234C46.4806 48.3083 46.0236 48.6198 45.5236 48.8201C45.0513 49.008 44.9179 49.2803 45.0774 49.7562H46.999V48.0234H46.9974Z" fill="#C49D5A"/>
<path d="M14.4418 19.2126C16.7545 19.2126 19.0688 19.2079 21.3814 19.2126C23.5009 19.2188 24.8643 20.5885 24.8796 22.7533C24.8965 25.2703 24.898 27.7873 24.8796 30.3043C24.8628 32.4566 23.4825 33.8294 21.3615 33.831C16.7162 33.8357 12.0709 33.8357 7.42555 33.831C5.31836 33.8278 3.93657 32.4222 3.93197 30.2824C3.92583 27.7654 3.92583 25.2484 3.93197 22.7314C3.9381 20.6198 5.31222 19.2204 7.38874 19.2141C9.73977 19.2063 12.0908 19.2126 14.4434 19.2126H14.4418ZM14.3989 20.9689C12.1046 20.9689 9.81185 20.9673 7.51756 20.9689C6.23699 20.9704 5.65269 21.559 5.65115 22.8503C5.64808 25.2891 5.64808 27.7278 5.65115 30.165C5.65115 31.4689 6.23239 32.0716 7.49916 32.0731C12.1046 32.0763 16.7116 32.0763 21.317 32.0731C22.5562 32.0731 23.1543 31.4752 23.1589 30.2135C23.1696 27.756 23.1681 25.2969 23.1589 22.8394C23.1543 21.5449 22.5685 20.9689 21.2787 20.9689C18.9844 20.9657 16.6917 20.9689 14.3974 20.9689H14.3989Z" fill="#C49D5A"/>
<path d="M24.3123 16.9928C18.5168 16.9928 12.7212 16.9928 6.92723 16.9928C6.75547 16.9928 6.58217 17.0007 6.4104 16.9881C5.87824 16.9506 5.53164 16.5921 5.53931 16.099C5.54698 15.6075 5.89664 15.271 6.43954 15.2381C6.55456 15.2319 6.66958 15.2366 6.78307 15.2366C18.5076 15.2366 30.2321 15.2366 41.9565 15.2366C42.0716 15.2366 42.1866 15.2319 42.3001 15.2381C42.8414 15.271 43.1926 15.6075 43.2003 16.1006C43.208 16.5937 42.8598 16.9506 42.3292 16.9897C42.1574 17.0022 41.9857 16.9944 41.8124 16.9944C35.9785 16.9944 30.1462 16.9944 24.3123 16.9944V16.9928Z" fill="#C49D5A"/>
<path d="M17.0735 41.1925C13.1352 41.1925 9.19688 41.1925 5.25856 41.1909C5.03005 41.1909 4.79541 41.1941 4.5761 41.1424C4.14975 41.0407 3.92738 40.737 3.93812 40.2925C3.94885 39.8495 4.18349 39.5615 4.61291 39.4722C4.79847 39.4347 4.99324 39.4362 5.18341 39.4362C13.1168 39.4347 21.0502 39.4347 28.9836 39.4362C29.1738 39.4362 29.3685 39.4347 29.5541 39.4675C29.9881 39.5458 30.2274 39.826 30.2427 40.2721C30.2596 40.7448 30.0295 41.0579 29.571 41.1502C29.3486 41.1956 29.1155 41.1878 28.887 41.1894C24.9486 41.1909 21.0103 41.1894 17.072 41.1894L17.0735 41.1925Z" fill="#C49D5A"/>
<path d="M16.336 44.5751C12.6645 44.5751 8.99457 44.5751 5.32309 44.5751C5.11299 44.5751 4.90135 44.5814 4.69278 44.5548C4.23116 44.4968 3.95971 44.2166 3.93824 43.7471C3.91677 43.2493 4.17748 42.9362 4.66211 42.8517C4.86761 42.8157 5.08078 42.8204 5.29089 42.8204C12.6706 42.8204 20.0504 42.8204 27.4302 42.8204C28.3687 42.8204 28.7659 43.0896 28.7583 43.7157C28.7506 44.334 28.3703 44.5767 27.4056 44.5767C23.7157 44.5767 20.0259 44.5767 16.336 44.5767V44.5751Z" fill="#C49D5A"/>
<path d="M16.3589 36.049C20.0488 36.049 23.7387 36.049 27.4285 36.049C27.6386 36.049 27.8518 36.0412 28.0573 36.0756C28.4929 36.1476 28.7321 36.4278 28.7536 36.8739C28.7766 37.3169 28.5711 37.6299 28.1447 37.7458C27.9454 37.799 27.7291 37.8037 27.5206 37.8037C20.0641 37.8068 12.6077 37.8068 5.15124 37.8037C4.96107 37.8037 4.76477 37.8037 4.58227 37.7552C4.13139 37.6393 3.90288 37.3216 3.93662 36.852C3.96882 36.4121 4.22187 36.1366 4.65588 36.0725C4.86292 36.0427 5.07609 36.049 5.28466 36.049C8.97454 36.049 12.6644 36.049 16.3543 36.049H16.3589Z" fill="#C49D5A"/>
<path d="M19.4293 13.4741C17.2163 13.4803 15.4158 11.6474 15.4143 9.39176C15.4143 7.13772 17.224 5.29066 19.4262 5.29849C21.5978 5.30475 23.3983 7.13616 23.4228 9.36046C23.4459 11.5988 21.6316 13.4694 19.4293 13.4756V13.4741ZM19.4293 11.7162C20.6654 11.7084 21.6914 10.6644 21.7006 9.40272C21.7113 8.13012 20.6424 7.04067 19.3956 7.05476C18.1564 7.06885 17.1396 8.11291 17.135 9.37767C17.1304 10.6784 18.1564 11.7241 19.4278 11.7162H19.4293Z" fill="#C49D5A"/>
<path d="M11.4913 11.0025C11.4913 11.602 11.5005 12.0231 11.4898 12.4441C11.4714 13.0843 11.1386 13.471 10.6233 13.471C10.1095 13.471 9.77521 13.0843 9.77368 12.4441C9.76755 10.4139 9.76908 8.38217 9.77521 6.35197C9.77828 5.6241 10.0758 5.30947 10.7797 5.29852C11.3916 5.28912 12.0097 5.26251 12.6139 5.33452C13.7718 5.47383 14.6628 6.33318 14.8361 7.3882C15.0217 8.52305 14.5279 9.50449 13.4682 10.1056C13.3869 10.151 13.3071 10.1979 13.1722 10.2746C13.643 10.824 14.1 11.3437 14.5417 11.8759C14.9711 12.3909 14.9696 12.9169 14.5586 13.2659C14.1598 13.604 13.6829 13.5273 13.255 13.0405C12.7014 12.4097 12.1554 11.7711 11.4898 11.0009L11.4913 11.0025ZM11.5205 8.62792C12.1278 8.6467 12.7244 8.78289 13.0479 8.17398C13.1476 7.98615 13.1108 7.60891 12.9851 7.43046C12.6201 6.91078 12.0649 7.04383 11.5205 7.09392V8.62792Z" fill="#C49D5A"/>
<path d="M35.9693 22.6046C38.4921 22.6046 41.0133 22.6046 43.5361 22.6046C43.7079 22.6046 43.8827 22.5921 44.0514 22.6187C44.5039 22.6923 44.7753 22.9725 44.7983 23.4421C44.8198 23.9148 44.5621 24.2153 44.1235 24.3296C43.9426 24.3766 43.7447 24.3609 43.553 24.3609C38.4706 24.3609 33.3867 24.3609 28.3043 24.3609C28.1509 24.3609 27.996 24.3719 27.8457 24.3515C27.3642 24.2842 27.0237 23.8913 27.0697 23.4296C27.1188 22.938 27.3964 22.6453 27.8871 22.614C28.2291 22.5921 28.5742 22.6046 28.9193 22.6046C31.2703 22.6046 33.6198 22.6046 35.9708 22.6046H35.9693Z" fill="#C49D5A"/>
<path d="M33.5384 9.3965C33.5338 6.28311 36.802 4.30613 39.4613 5.81352C40.0793 6.16414 40.2925 6.65095 40.0394 7.13776C39.7879 7.62614 39.2987 7.70754 38.653 7.36943C37.7114 6.87636 36.7284 6.9875 35.9922 7.6684C35.2868 8.32114 35.0537 9.40276 35.4263 10.2966C35.7944 11.1794 36.6839 11.8024 37.6087 11.6897C38.0319 11.638 38.4644 11.3954 38.8217 11.1371C39.3217 10.774 39.7327 10.7051 40.1008 11.0682C40.4658 11.4298 40.4351 11.9667 40.0241 12.4191C38.5227 14.0689 35.6487 13.7387 34.2684 11.7523C33.7807 11.0495 33.5231 10.2652 33.5369 9.3965H33.5384Z" fill="#C49D5A"/>
<path d="M5.31682 10.6675C5.31682 11.3265 5.32449 11.9057 5.31529 12.4864C5.30455 13.0796 4.97483 13.46 4.481 13.4725C3.96724 13.4851 3.60224 13.0937 3.59917 12.4723C3.5915 10.4077 3.59457 8.34146 3.59764 6.27525C3.59764 5.7274 3.87062 5.3439 4.40125 5.31885C5.1788 5.28285 5.97321 5.26563 6.74002 5.38616C8.0758 5.59435 8.96069 6.83094 8.87021 8.20684C8.78279 9.51387 7.69393 10.5955 6.38422 10.6644C6.06216 10.6816 5.73857 10.6675 5.31682 10.6675ZM5.3521 7.07669V8.89401C5.95787 8.9034 6.60813 9.11472 6.97466 8.47764C7.11575 8.23188 7.12189 7.76542 6.98386 7.51967C6.62806 6.88572 5.97781 7.05321 5.3521 7.07512V7.07669Z" fill="#C49D5A"/>
<path d="M30.5464 7.12521V8.5465C31.0586 8.5465 31.534 8.53555 32.0079 8.54963C32.5784 8.56685 32.9526 8.9347 32.9388 9.44029C32.9265 9.91928 32.56 10.2762 32.0232 10.2965C31.5478 10.3137 31.0693 10.2996 30.551 10.2996V11.7162C31.0724 11.7162 31.5816 11.71 32.0923 11.7162C32.7624 11.7256 33.132 12.059 33.1167 12.6241C33.1014 13.161 32.7425 13.4647 32.0938 13.471C31.3101 13.4772 30.5249 13.4819 29.7412 13.4694C29.1354 13.46 28.8042 13.1532 28.7981 12.5349C28.7812 10.4656 28.7812 8.39623 28.7981 6.3269C28.8027 5.67104 29.1201 5.38145 29.775 5.37206C30.5786 5.35954 31.3822 5.35954 32.1858 5.37206C32.7824 5.38302 33.1213 5.71643 33.1182 6.2455C33.1152 6.76362 32.764 7.10173 32.1735 7.12051C31.6414 7.13773 31.1092 7.12364 30.5479 7.12364L30.5464 7.12521Z" fill="#C49D5A"/>
<path d="M10.2843 48.0595C8.5068 48.0595 6.72934 48.0548 4.95187 48.0627C4.45498 48.0642 4.08385 47.8936 3.95349 47.3786C3.80626 46.7963 4.23261 46.3158 4.91507 46.308C6.06221 46.2939 7.20936 46.3033 8.35497 46.3033C10.7827 46.3033 13.2104 46.286 15.6366 46.3236C15.9694 46.3283 16.411 46.513 16.6074 46.7697C17.0322 47.3285 16.5583 48.0486 15.7884 48.0548C13.9542 48.0689 12.1185 48.0595 10.2843 48.0611V48.0595Z" fill="#C49D5A"/>
<path d="M32.8207 27.7544C31.33 27.7544 29.8394 27.7544 28.3472 27.7544C28.2137 27.7544 28.0788 27.7622 27.9453 27.7512C27.4132 27.7074 27.0589 27.3458 27.0635 26.8621C27.0666 26.3722 27.4209 26.0059 27.9607 26.0044C31.2104 25.995 34.4601 25.995 37.7099 26.0044C38.262 26.0044 38.6024 26.3519 38.6132 26.8496C38.6239 27.3881 38.2574 27.7465 37.6378 27.7512C36.0321 27.7622 34.4264 27.7544 32.8207 27.7559V27.7544Z" fill="#C49D5A"/>
<path d="M42.6037 7.0453C42.2556 7.0453 41.9749 7.06095 41.6943 7.04217C41.2066 7.00773 40.9167 6.73224 40.8876 6.22978C40.8569 5.72262 41.1299 5.35164 41.6007 5.33286C42.8399 5.28433 44.0821 5.28433 45.3213 5.33129C45.7906 5.34851 46.0758 5.72888 46.0467 6.22351C46.0175 6.71032 45.7307 7.0093 45.2369 7.0406C44.9563 7.05939 44.6741 7.04374 44.326 7.04374C44.326 7.59316 44.326 8.07371 44.326 8.55582C44.326 9.8425 44.3321 11.1292 44.3229 12.4143C44.3168 13.0874 43.9656 13.485 43.4319 13.4693C42.9212 13.4537 42.6098 13.0717 42.6083 12.419C42.6022 10.86 42.6068 9.30091 42.6068 7.74186C42.6068 7.53368 42.6068 7.32549 42.6068 7.04374L42.6037 7.0453Z" fill="#C49D5A"/>
<path d="M27.4869 8.8486C27.4869 9.66882 27.4946 10.4875 27.4854 11.3077C27.4746 12.2359 27.0544 12.92 26.2263 13.2972C25.4058 13.6713 24.6543 13.4475 23.9826 12.898C23.544 12.5396 23.4673 12.0747 23.7495 11.6646C24.0255 11.2639 24.4994 11.1887 24.9656 11.4689C25.6098 11.8571 25.7647 11.7742 25.7677 11.0197C25.7723 9.45907 25.7601 7.89689 25.7739 6.33628C25.7815 5.5552 26.3858 5.06056 26.9532 5.40493C27.2093 5.55989 27.4394 5.96374 27.4639 6.27367C27.5329 7.12676 27.4884 7.98925 27.4869 8.8486Z" fill="#C49D5A"/>
<path d="M41.5871 44.6801C39.1302 44.6957 37.1227 42.6827 37.1058 40.1845C37.0874 37.6378 39.0535 35.5997 41.5426 35.5856C44.0178 35.5716 46.0438 37.6237 46.0392 40.1391C46.033 42.6373 44.047 44.6644 41.5886 44.6816L41.5871 44.6801ZM41.5702 37.3419C40.0473 37.3404 38.8327 38.5644 38.8266 40.1109C38.8189 41.6653 40.012 42.9066 41.5288 42.9238C43.0624 42.941 44.323 41.6747 44.3169 40.1235C44.3108 38.5926 43.0793 37.3435 41.5702 37.3419Z" fill="#C49D5A"/>
<path d="M21.9445 26.8182C21.9445 27.8529 21.9506 28.8875 21.9429 29.9222C21.9368 30.7033 21.6239 31.0226 20.8556 31.0257C19.21 31.032 17.566 31.0336 15.9204 31.0257C15.149 31.0226 14.8469 30.708 14.8454 29.9175C14.8408 27.809 14.8392 25.7006 14.8454 23.5921C14.8469 22.8439 15.1597 22.5199 15.8959 22.5152C17.5599 22.5042 19.2238 22.5042 20.8878 22.5152C21.6193 22.5199 21.9353 22.8486 21.9414 23.5968C21.9506 24.6706 21.9445 25.7444 21.9445 26.8182ZM20.1915 24.3153H16.6136V29.2241H20.1915V24.3153Z" fill="#C49D5A"/>
<path d="M10.4376 25.7633C11.278 25.7633 12.1185 25.7555 12.9574 25.7664C13.6383 25.7743 13.9404 26.0717 13.9481 26.7604C13.9603 27.8514 13.9603 28.9424 13.9481 30.0335C13.9404 30.6893 13.6367 31.0165 13.0018 31.0227C11.2842 31.0384 9.56499 31.0368 7.84734 31.0227C7.20783 31.018 6.89497 30.6972 6.88423 30.0475C6.86736 28.9377 6.86736 27.8264 6.88423 26.715C6.89497 26.0654 7.20629 25.7743 7.86115 25.7649C8.71997 25.7539 9.5788 25.7617 10.4392 25.7617L10.4376 25.7633ZM8.63102 29.232H12.2013V27.5556H8.63102V29.232Z" fill="#C49D5A"/>
</svg>
