<svg width="60" height="60" viewBox="0 0 60 60" fill="none" xmlns="http://www.w3.org/2000/svg">
<path d="M0 47.4001C0 34.4696 0 21.5406 0 8.61159C0.0395527 8.4867 0.0952195 8.36329 0.118658 8.23547C0.681186 5.15455 3.40153 2.74064 6.47053 2.60253C7.54578 2.55405 7.81532 2.81557 7.81532 3.92482C7.81679 6.43128 7.81532 8.93775 7.81532 11.4457C7.81532 11.6734 7.81532 11.9026 7.81532 12.1553C8.06143 12.17 8.23282 12.1891 8.40422 12.1891C17.1512 12.1906 25.8997 12.195 34.6467 12.1729C34.9485 12.1729 35.322 11.9908 35.5418 11.7718C39.1059 8.22812 42.6495 4.6653 46.199 1.10688C47.6771 -0.375546 49.1303 -0.3682 50.6201 1.12451C51.3526 1.85765 52.0865 2.59078 52.8146 3.32685C54.1608 4.68734 54.1682 6.19915 52.8307 7.55229C51.4698 8.92894 50.0986 10.2968 48.7333 11.669C48.603 11.8012 48.4828 11.9452 48.2616 12.1906C48.6 12.1906 48.8066 12.1906 49.0117 12.1906C50.8282 12.1906 52.6432 12.1906 54.4597 12.1906C55.6302 12.1906 55.866 12.4286 55.8675 13.601C55.8675 19.1429 55.8675 24.6862 55.8675 30.228V31.0787C56.7435 30.1898 57.4774 29.4405 58.2172 28.6956C58.9321 27.9772 59.3452 27.9831 60 28.7118V59.3903C59.7231 59.8634 59.31 60 58.7724 60C49.0102 59.9897 39.248 59.9912 29.4873 59.9956C28.9951 59.9956 28.5395 59.9633 28.3256 59.4211C28.1205 58.901 28.4311 58.5705 28.7563 58.2443C30.1934 56.8045 31.629 55.3647 33.0631 53.9234C33.2038 53.7823 33.3341 53.631 33.5436 53.4033C33.1891 53.4033 32.9767 53.4033 32.7643 53.4033C24.1345 53.4033 15.5047 53.4033 6.87631 53.4033C4.1838 53.4033 2.12559 52.2529 0.839396 49.8786C0.433615 49.1205 0.273939 48.2287 0 47.4001ZM58.2289 45.2609C58.1703 45.2095 58.1557 45.186 58.1425 45.186C57.6942 45.1772 57.2445 45.1772 56.7962 45.164C56.1443 45.1449 55.7635 44.8172 55.7605 44.2839C55.7591 43.7491 56.1341 43.4171 56.7801 43.4039C57.2591 43.3936 57.7382 43.4024 58.1982 43.4024V40.724C57.7059 40.724 57.2577 40.7314 56.8123 40.7226C56.137 40.7093 55.7796 40.417 55.7649 39.8792C55.7488 39.318 56.1224 38.983 56.8138 38.961C57.2753 38.9463 57.7382 38.958 58.1982 38.958V31.3079C58.1542 31.28 58.1103 31.252 58.0678 31.2241C57.952 31.3813 57.8524 31.5562 57.7162 31.6928C55.0955 34.3286 52.4718 36.9599 49.8481 39.5927C47.5277 41.92 45.2102 44.2501 42.8869 46.5729C42.4371 47.0225 41.8995 47.0725 41.5377 46.7287C41.1363 46.3481 41.1729 45.8325 41.6373 45.33C41.7296 45.2301 41.8292 45.1346 41.9259 45.0391C45.8475 41.1045 49.7661 37.1671 53.6979 33.2428C54.0012 32.9402 54.1198 32.6419 54.1198 32.2173C54.1066 26.3802 54.111 20.5415 54.111 14.7044C54.111 14.4767 54.111 14.2489 54.111 13.9595C53.8327 13.9595 53.6423 13.9595 53.4504 13.9595C51.3013 13.9595 49.1538 13.9683 47.0047 13.9507C46.599 13.9477 46.3177 14.0814 46.035 14.3665C40.7393 19.6923 35.4026 24.9785 30.1494 30.3485C28.8266 31.7002 27.4276 32.7477 25.5833 33.2134C24.6926 33.4382 23.843 33.8217 22.9743 34.1346C22.9831 34.1699 22.9904 34.2066 22.9992 34.2419C23.2072 34.2419 23.4167 34.2419 23.6247 34.2419C29.0346 34.2419 34.4446 34.2419 39.8545 34.2434C40.5869 34.2434 41.0059 34.5783 41.003 35.1322C41 35.6685 40.5928 36.0049 39.9043 36.0049C31.9161 36.0079 23.9279 36.0079 15.9397 36.0049C15.26 36.0049 14.866 35.6567 14.8777 35.1072C14.8894 34.5783 15.2688 34.2551 15.9236 34.2448C16.6663 34.2331 17.4091 34.2125 18.1488 34.2536C18.5678 34.2771 18.7202 34.1082 18.8461 33.7424C19.706 31.2476 20.5821 28.7588 21.4683 26.2729C21.5709 25.9864 21.7159 25.6867 21.9239 25.4722C23.1925 24.169 24.4831 22.8864 25.7708 21.6008C25.8938 21.4789 26.0477 21.2982 26.1868 21.2996C26.5106 21.3026 26.9383 21.2967 27.1288 21.4892C27.3177 21.6816 27.3339 22.1165 27.3016 22.4324C27.2826 22.6263 27.0438 22.81 26.8797 22.9745C25.8206 24.0427 24.7571 25.1049 23.7346 26.1289C25.0852 27.4997 26.411 28.847 27.6928 30.1487C33.7429 24.0838 39.8032 18.0072 45.7845 12.0113C44.488 10.6964 43.1623 9.35501 41.775 7.94898C41.6651 8.08561 41.5435 8.26779 41.3926 8.41912C37.6249 12.2038 33.8542 15.9841 30.082 19.7643C29.918 19.9289 29.748 20.1022 29.5517 20.2198C29.1884 20.4387 28.8237 20.3652 28.5336 20.0758C28.2421 19.7864 28.1718 19.422 28.3871 19.0547C28.4941 18.8725 28.6493 18.7153 28.8002 18.564C30.0132 17.3416 31.2276 16.1222 32.4464 14.9071C32.7174 14.6368 33.006 14.3841 33.2858 14.124C33.2594 14.0844 33.2316 14.0432 33.2052 14.0036H7.81679V14.7205C7.81679 19.97 7.81679 25.221 7.81386 30.4704C7.81386 30.7422 7.808 31.0243 7.73768 31.2844C7.62195 31.7178 7.29967 31.9205 6.85434 31.8882C6.43537 31.8574 6.16583 31.6179 6.09258 31.2036C6.04864 30.9553 6.0545 30.6967 6.0545 30.4425C6.05303 22.0387 6.0545 13.6348 6.0545 5.23094C6.0545 4.98706 6.0545 4.74464 6.0545 4.45373C5.81864 4.49487 5.68534 4.50809 5.55642 4.54189C3.27995 5.12957 1.76229 7.20703 1.76083 9.77667C1.75643 20.4328 1.75936 31.0904 1.75936 41.7466C1.75936 41.9141 1.75936 42.0816 1.75936 42.3019C1.87656 42.2388 1.93076 42.2226 1.96592 42.1874C3.01773 41.1721 4.22921 40.4596 5.6868 40.2274C6.08233 40.1643 6.05596 39.9057 6.05596 39.6251C6.05303 38.0192 6.04864 36.4119 6.05742 34.8061C6.06035 34.0979 6.37678 33.7042 6.91001 33.6924C7.43884 33.6806 7.80653 34.0906 7.81093 34.7723C7.82411 36.7704 7.82558 38.7685 7.81093 40.7666C7.80507 41.5189 7.48132 41.7716 6.73568 41.8788C6.06768 41.9758 5.37477 42.0889 4.7639 42.3578C2.83022 43.207 1.5323 45.4269 1.81357 47.2561C2.23107 49.9756 4.12813 51.6299 6.88803 51.6329C16.2239 51.6402 25.5598 51.6388 34.8957 51.6226C35.1506 51.6226 35.4641 51.4889 35.6487 51.3111C36.7327 50.2665 37.7802 49.1837 38.8554 48.1288C39.2583 47.7336 39.771 47.7189 40.1196 48.0392C40.5049 48.3933 40.5064 48.8913 40.1152 49.3468C40.001 49.4805 39.8706 49.5995 39.7461 49.7244C37.0946 52.3836 34.4431 55.0429 31.7916 57.7036C31.6495 57.8461 31.5147 57.9931 31.3272 58.1914H58.2128V54.0086C57.7396 54.0086 57.2958 54.0145 56.8519 54.0086C56.1312 53.9968 55.7679 53.7059 55.762 53.1462C55.7561 52.5879 56.1282 52.2661 56.8299 52.247C57.2899 52.2338 57.7484 52.2441 58.2084 52.2441V49.598C57.7103 49.598 57.246 49.6127 56.7816 49.5951C56.1136 49.5672 55.7605 49.2498 55.7605 48.7092C55.7605 48.1641 56.1106 47.8555 56.7816 47.8364C57.2591 47.8232 57.7367 47.8335 58.2275 47.8335V45.2624L58.2289 45.2609ZM49.9609 7.70656C50.6011 7.12328 51.294 6.56058 51.8961 5.91266C52.2286 5.55564 52.0733 5.08696 51.7437 4.74904C50.8721 3.85577 49.9917 2.96984 49.0996 2.0986C48.7436 1.75039 48.2748 1.6167 47.8895 1.97665C47.2567 2.56727 46.6927 3.23282 46.1126 3.85136C47.4017 5.14279 48.7099 6.45332 49.9609 7.70802V7.70656ZM47.1175 10.573C47.6654 10.072 48.2045 9.57685 48.6835 9.13756C47.3505 7.80059 46.032 6.4783 44.7253 5.16777C44.2448 5.6482 43.7248 6.1683 43.2238 6.6693C44.5407 7.98864 45.8636 9.31534 47.1175 10.573ZM22.7706 27.9361C22.0909 29.5022 22.2628 30.7731 23.2863 31.7486C23.3288 31.7898 23.3625 31.85 23.4123 31.8691C23.5295 31.9117 23.6745 31.9911 23.7741 31.9573C24.5256 31.706 25.2683 31.4313 25.9891 31.1727C24.905 30.0826 23.8474 29.0203 22.7692 27.9375L22.7706 27.9361Z" fill="#C49D5A"/>
<path d="M47.9379 53.7412C46.4334 53.7412 44.9304 53.7354 43.426 53.7442C42.9674 53.7471 42.5455 53.6737 42.3449 53.2123C42.1354 52.729 42.3683 52.3572 42.7125 52.012C45.783 48.9413 48.8476 45.8663 51.9107 42.7883C52.2491 42.4489 52.6081 42.1918 53.1003 42.4034C53.5954 42.6149 53.6496 43.0645 53.6481 43.5376C53.6452 46.5157 53.6481 49.4923 53.6452 52.4704C53.6452 53.4445 53.3493 53.7383 52.3883 53.7412C50.9044 53.7442 49.4204 53.7412 47.935 53.7412H47.9379ZM51.8507 51.9517V45.6224C49.7617 47.719 47.6303 49.8567 45.5413 51.9517H51.8507Z" fill="#C49D5A"/>
</svg>
