<svg width="59" height="60" viewBox="0 0 59 60" fill="none" xmlns="http://www.w3.org/2000/svg">
<path d="M0 30.4797C0.0354088 30.3921 0.0846731 30.3076 0.104687 30.2169C0.588093 28.1375 2.15378 26.8028 4.28138 26.662C4.49075 26.6479 4.69859 26.6432 4.92797 26.6323C5.00649 25.9626 5.01881 25.296 5.16814 24.6624C5.7978 22.0196 7.40967 20.3204 10.0253 19.6774C11.7588 19.2518 13.5061 18.8872 15.2796 18.4867C15.3582 17.7591 15.469 17.1129 14.7177 16.5465C13.5231 15.6468 12.8257 14.37 12.5516 12.8648C12.5193 12.6912 12.3623 12.4956 12.2099 12.3954C11.4339 11.8885 11.0368 11.1922 11.0429 10.2503C11.0521 8.74823 11.0244 7.24459 11.0552 5.74252C11.123 2.65546 13.5692 0.142618 16.599 0.0456095C17.6351 0.0127517 18.682 -0.0467052 19.7057 0.0643854C20.4447 0.144183 21.1575 0.479019 21.878 0.713718C22.4338 0.895218 22.9695 1.20346 23.5376 1.27699C25.3835 1.51326 26.8737 2.89485 26.9784 4.78808C27.0846 6.69384 27.0307 8.61054 27.0061 10.5225C26.9953 11.3424 26.5489 11.9401 25.8776 12.3876C25.7083 12.5003 25.5343 12.7146 25.5005 12.9071C25.2141 14.5296 24.3566 15.7767 23.1158 16.7874C22.7801 17.0613 22.5461 18.0188 22.7555 18.3693C22.8186 18.4741 23.0003 18.5289 23.1388 18.5618C24.6537 18.9075 26.1871 19.1845 27.6835 19.6023C28.7735 19.9074 29.7464 20.0904 30.7964 19.391C31.2813 19.0687 32.0095 19.0812 32.6346 19.0312C33.3412 18.9748 34.0555 19.0421 34.7652 19.0124C35.6997 18.9733 36.5311 19.2158 37.3285 19.7212C37.7026 19.9574 38.1768 20.0889 38.6186 20.1405C40.4306 20.3549 41.7962 21.8241 41.827 23.6766C41.8424 24.6483 41.8301 25.6184 41.8301 26.6557C42.5336 26.6557 43.1817 26.6557 43.8283 26.6557C45.0384 26.6557 46.2484 26.6401 47.4585 26.6589C50.1126 26.7011 51.9616 28.6115 51.9723 31.3121C51.9785 33.0489 51.9754 34.7857 51.9723 36.524C51.9723 37.2641 51.666 37.6584 51.1102 37.66C50.5545 37.66 50.2466 37.2625 50.2466 36.5256C50.2435 34.7685 50.2512 33.0129 50.2435 31.2558C50.2358 29.6458 49.1858 28.4723 47.6232 28.4285C45.7804 28.3784 43.9361 28.416 42.0933 28.4175C42.0194 28.4175 41.9471 28.4473 41.9548 28.4457C41.7515 29.3469 41.6253 30.22 41.3528 31.043C40.8586 32.5435 39.938 33.7608 38.6694 34.6824C38.3692 34.8999 38.2368 35.1174 38.2599 35.4945C38.2938 36.0186 38.2676 36.5459 38.2676 37.1452C39.2945 37.3799 40.3152 37.613 41.3359 37.8446C42.0471 38.0057 42.7599 38.1622 43.4712 38.3218C46.5071 39.0009 48.5685 41.5591 48.6131 44.7291C48.6331 46.131 48.6162 47.5345 48.6162 48.9474C49.5415 48.7017 50.2281 47.7082 50.2389 46.5675C50.2558 44.6743 50.245 42.7811 50.245 40.8878C50.245 40.7314 50.2404 40.5749 50.245 40.42C50.2681 39.827 50.5991 39.4499 51.0994 39.4452C51.6029 39.4405 51.9554 39.8145 51.9677 40.4012C51.9816 41.0443 51.9708 41.6889 51.9723 42.3336C51.9723 43.5634 51.9723 44.7932 51.9723 46.023C51.9723 48.6125 51.0379 49.9941 48.6162 50.9298C48.6162 52.3709 48.6162 53.8322 48.6162 55.2936C48.6162 55.86 48.6193 56.4264 48.6162 56.9913C48.6054 58.4339 47.9511 59.3805 46.6241 59.8843C46.5579 59.9094 46.5009 59.961 46.4409 60.0001H22.7016C22.6601 59.9641 22.6247 59.9141 22.5769 59.8953C21.159 59.3414 20.5417 58.4511 20.534 56.9303C20.5294 56.0728 20.534 55.2154 20.534 54.358C20.534 53.2705 20.534 52.1815 20.534 51.0581H10.3224C10.3224 51.3069 10.3224 51.5165 10.3224 51.7278C10.3224 53.6382 10.287 55.5487 10.3347 57.4576C10.3655 58.7015 9.92831 59.5651 8.75828 60.0001H5.87785C4.734 59.5323 4.29985 58.6795 4.34296 57.4294C4.40916 55.5205 4.35989 53.6069 4.35989 51.6949C4.35989 51.4868 4.35989 51.2787 4.35989 51.055C4.17977 51.0268 4.06893 51.0065 3.95808 50.9924C2.15378 50.7561 0.940641 49.7516 0.266335 48.054C0.160109 47.788 0.0877521 47.5079 0 47.2341C0 41.6514 0 36.0687 0 30.486L0 30.4797ZM20.5355 49.2587C20.5355 47.7019 20.5201 46.239 20.5386 44.7776C20.5802 41.5325 22.6554 38.9774 25.7468 38.3108C27.451 37.9432 29.1491 37.541 30.8826 37.1483C30.8826 36.5569 30.918 35.9889 30.8657 35.4303C30.8426 35.1847 30.7025 34.878 30.5146 34.7325C29.0706 33.62 28.0745 32.2009 27.6019 30.4265C27.4325 29.7913 27.3679 29.1279 27.2447 28.4113C27.0446 28.4113 26.8183 28.4113 26.592 28.4113C22.1366 28.4113 17.6813 28.4113 13.2259 28.4113C12.3315 28.4113 11.9158 28.1437 11.8989 27.5617C11.8819 26.9577 12.3253 26.6557 13.2383 26.6557C17.6936 26.6557 22.1489 26.6557 26.6043 26.6557C26.8275 26.6557 27.0492 26.6557 27.3109 26.6557C27.3556 24.8595 27.0831 23.0836 28.1684 21.4924C26.4411 21.109 24.7892 20.7617 23.1512 20.3642C22.7293 20.2625 22.5631 20.3376 22.3783 20.7429C21.2145 23.3089 17.8583 23.7189 16.1464 21.5111C15.8662 21.1497 15.6753 20.7179 15.392 20.2312C13.4815 20.6959 11.4832 21.0339 9.58807 21.6832C7.61134 22.3607 6.39359 24.7375 6.81388 26.6557C7.58363 26.6557 8.36878 26.6448 9.15239 26.6589C9.79899 26.6714 10.1531 26.9968 10.1546 27.5382C10.1546 28.0827 9.80668 28.4019 9.15239 28.4066C7.71141 28.4175 6.27197 28.4097 4.83099 28.4113C2.78651 28.4128 1.73349 29.4752 1.73349 31.5359C1.73349 36.3769 1.77967 41.218 1.70886 46.0575C1.68269 47.8662 2.77728 49.3104 4.85716 49.2822C9.82978 49.2134 14.8055 49.2603 19.7796 49.2603H20.5371L20.5355 49.2587ZM34.5359 58.2383C38.223 58.2383 41.9116 58.2383 45.5988 58.2383C46.4393 58.2383 46.8735 57.8675 46.8843 57.0914C46.9027 55.8819 46.9289 54.6693 46.8719 53.4614C46.7272 50.3916 44.3241 48.0555 41.3035 48.0446C36.7712 48.0289 32.2389 48.0227 27.7066 48.0508C24.9986 48.068 22.6508 50.185 22.3614 52.9138C22.2244 54.2078 22.2798 55.5236 22.2675 56.8301C22.2582 57.8831 22.617 58.2383 23.6469 58.2383C27.2771 58.2383 30.9072 58.2383 34.5359 58.2383ZM46.8704 48.8864C46.8704 47.256 46.9535 45.7743 46.8504 44.3035C46.7103 42.3039 45.3555 40.6735 43.5589 40.1462C43.0447 39.996 42.509 39.9224 41.9917 39.7785C38.9927 38.9445 35.9491 38.5362 32.8362 38.7443C32.359 38.7756 31.8694 38.7443 31.406 38.8413C29.5863 39.2262 27.7728 39.6408 25.9608 40.0633C24.0795 40.5014 22.7832 41.6999 22.4538 43.59C22.1613 45.2689 22.269 47.0182 22.1997 48.7377C22.4291 48.7064 22.5015 48.6517 22.5646 48.5875C24.098 46.9978 25.9562 46.2609 28.1484 46.2749C32.4667 46.3031 36.7851 46.2812 41.1034 46.2859C41.5052 46.2859 41.9116 46.2937 42.3088 46.3501C44.0854 46.6035 45.568 47.4391 46.8704 48.8864ZM40.1566 26.238C40.1397 26.238 40.1227 26.2364 40.1058 26.2348C40.1058 25.4353 40.112 24.6342 40.1058 23.8346C40.0966 22.7253 39.4546 22.0416 38.3677 21.8773C37.8443 21.799 37.2608 21.7302 36.8374 21.4485C35.9645 20.8681 35.0531 20.6975 34.0478 20.7664C33.5706 20.7992 33.0872 20.7664 32.6084 20.7742C30.6024 20.8117 29.0767 22.3529 29.0521 24.3854C29.0352 25.7326 29.0306 27.0797 29.0613 28.4253C29.0737 28.9464 29.1522 29.4784 29.2846 29.9822C30.0451 32.8768 32.7362 34.7012 35.5088 34.2271C37.6611 33.8594 39.6255 31.8426 39.978 29.5034C40.1397 28.43 40.1043 27.327 40.1597 26.238H40.1566ZM12.7779 9.28804C12.7779 9.69015 12.7194 10.0344 12.798 10.3442C12.8534 10.5601 13.0735 10.8636 13.2567 10.8949C13.9449 11.0092 14.1558 11.4019 14.2051 12.0606C14.3667 14.1838 16.3358 16.3149 18.4187 16.667C18.682 16.7108 18.9545 16.7483 19.2177 16.728C21.5177 16.548 23.7023 14.3121 23.8593 11.9761C23.8978 11.3956 24.1334 11.0561 24.7184 10.9043C24.9478 10.8449 25.2449 10.5429 25.2742 10.3191C25.3234 9.94832 25.5066 9.49301 24.9647 9.20354C24.412 8.90626 23.8871 8.52605 23.4175 8.10359C22.4368 7.21956 22.3383 7.18827 21.156 7.81726C18.5419 9.20667 15.8169 9.97023 12.7779 9.28804ZM25.308 7.44331C25.308 6.56553 25.3327 5.87083 25.3019 5.17768C25.248 3.95256 24.4921 3.20622 23.2882 3.01689C22.6539 2.91832 21.9457 2.82131 21.4423 2.47083C20.5833 1.87469 19.6965 1.737 18.7158 1.78707C18.1801 1.81367 17.6413 1.79646 17.104 1.79177C14.5237 1.76673 12.7903 3.49568 12.7749 6.11178C12.7656 7.63576 12.7872 7.64984 14.3036 7.76719C16.6375 7.94869 18.7143 7.15384 20.7203 6.06328C22.0766 5.32632 23.2943 5.52034 24.3889 6.61873C24.6383 6.86908 24.9154 7.09282 25.308 7.44174V7.44331ZM6.08877 51.0409C6.08877 53.3409 6.0903 55.5784 6.08569 57.8159C6.08569 58.1569 6.25811 58.2477 6.55678 58.2399C7.01555 58.2289 7.47894 58.2086 7.93464 58.2446C8.43652 58.2853 8.60741 58.0991 8.60125 57.5843C8.57969 55.5596 8.59355 53.535 8.59047 51.5103C8.59047 51.3616 8.55968 51.213 8.53967 51.0409H6.08723H6.08877ZM20.9589 18.1268C19.6472 18.6181 18.3741 18.5868 17.0932 18.1315C17.0008 19.2189 16.99 20.214 17.9661 20.854C18.6527 21.3046 19.3809 21.3109 20.0768 20.8696C21.0697 20.2422 21.0574 19.2486 20.9589 18.1268ZM36.5172 35.9576H32.6453V36.9433H36.5172V35.9576Z" fill="#C49D5A"/>
<path d="M48.8532 0.0487911C51.2148 0.0487911 53.5749 0.0472264 55.9365 0.0487911C57.847 0.0503558 58.994 1.20507 58.9971 3.13116C59.0001 5.53135 59.0017 7.92997 58.9971 10.3301C58.9924 12.1796 57.8347 13.3515 56.0043 13.3687C55.467 13.3734 54.9281 13.3906 54.3924 13.364C53.8797 13.339 53.5226 13.5502 53.2224 13.9602C52.2555 15.2713 51.2841 16.5794 50.2881 17.8671C49.6645 18.6729 48.5576 18.6745 48.0388 17.8671C47.8618 17.5933 47.7894 17.2146 47.774 16.8782C47.7355 16.099 47.774 15.3183 47.7571 14.5375C47.7402 13.7255 47.3799 13.375 46.5748 13.3718C44.9814 13.3671 43.388 13.375 41.7946 13.3687C39.8979 13.3609 38.7556 12.1952 38.751 10.2597C38.7448 7.8799 38.7448 5.50005 38.751 3.12021C38.7571 1.22541 39.9148 0.0534851 41.7715 0.0503558C44.1331 0.0472265 46.4932 0.0503558 48.8548 0.0503558L48.8532 0.0487911ZM49.486 15.8237C49.5322 15.8377 49.5783 15.8518 49.6245 15.8659C50.3773 14.8598 51.1348 13.8569 51.883 12.8477C52.4896 12.0309 53.2732 11.5866 54.2969 11.61C54.8527 11.6226 55.41 11.6163 55.9673 11.61C56.8818 11.6007 57.2667 11.2157 57.2682 10.291C57.2728 7.91119 57.2713 5.52978 57.2682 3.14994C57.2682 2.18298 56.8956 1.80434 55.9411 1.80434C51.2379 1.80121 46.5347 1.80121 41.83 1.80434C40.8462 1.80434 40.4767 2.18142 40.4752 3.18906C40.4706 5.52978 40.4706 7.87207 40.4752 10.2128C40.4767 11.2455 40.8447 11.6085 41.8792 11.61C43.4542 11.6132 45.0275 11.6069 46.6025 11.6116C48.3206 11.6163 49.4429 12.7382 49.4844 14.4906C49.4952 14.9334 49.486 15.3777 49.486 15.8205V15.8237Z" fill="#C49D5A"/>
</svg>
