<svg width="24" height="25" viewBox="0 0 24 25" fill="none" xmlns="http://www.w3.org/2000/svg">
<path fill-rule="evenodd" clip-rule="evenodd" d="M12.3699 0.958869C12.3526 1.00645 12.1033 2.80146 12.1127 2.81089C12.1193 2.8175 12.3486 2.86405 12.6223 2.91435C16.6402 3.65268 20.0573 6.49369 21.5102 10.304C21.7313 10.8835 21.963 11.6825 22.0768 12.2571C22.1138 12.4441 22.1521 12.5267 22.2016 12.5267C22.311 12.5267 23.9694 12.2431 23.9919 12.2206C24.0606 12.1519 23.6771 10.654 23.3801 9.83102C22.008 6.02896 18.8553 2.90399 15.0578 1.58191C14.1302 1.259 12.4061 0.859341 12.3699 0.958869ZM3.46852 3.32268C3.0769 3.46318 2.79253 3.70326 1.6355 4.8703C0.582383 5.93257 0.467594 6.06426 0.314791 6.3853C0.0922438 6.85289 0 7.33219 0 8.02073C0 8.93574 0.129835 9.63136 0.508466 10.7452C1.23348 12.8781 2.46672 15.0421 4.14188 17.121C4.99766 18.1829 6.44657 19.6622 7.47606 20.5248C9.99387 22.6347 13.1002 24.2995 15.4304 24.788C15.8384 24.8735 16.2202 24.9167 16.7373 24.9358C17.6145 24.9683 17.9868 24.9026 18.5747 24.6118C18.9341 24.434 19.0396 24.3416 20.1637 23.2207C21.2524 22.135 21.3824 21.9886 21.5217 21.6918C21.7839 21.133 21.7533 20.5759 21.4315 20.051C21.3683 19.9479 20.5754 19.1211 19.6694 18.2138C18.1546 16.6967 17.9959 16.5516 17.6941 16.4089C17.4027 16.271 17.3214 16.2537 16.9666 16.2537C16.6076 16.2537 16.5341 16.2698 16.2401 16.4133C15.9514 16.5542 15.7888 16.6986 14.8546 17.6439C13.9694 18.5396 13.7744 18.7149 13.6633 18.7149C13.5897 18.7149 13.2473 18.5667 12.8949 18.3823C11.6777 17.7453 10.691 16.9872 9.39448 15.6928C8.45723 14.757 8.03388 14.2768 7.43477 13.4698C6.83509 12.662 6.23396 11.5653 6.23396 11.2789C6.23396 11.174 6.42716 10.9553 7.28253 10.0921C7.85924 9.51017 8.38711 8.94395 8.45559 8.83378C8.63281 8.5486 8.73532 8.11107 8.69932 7.7934C8.68315 7.65065 8.60398 7.39675 8.52341 7.22915C8.394 6.96001 8.1819 6.72893 6.70778 5.25088C5.16579 3.70476 5.01374 3.56562 4.71062 3.42324C4.31446 3.23722 3.81874 3.19709 3.46852 3.32268ZM11.9856 6.65322C11.9165 7.16155 11.8755 7.59065 11.8944 7.60673C11.9134 7.62281 12.0765 7.66172 12.257 7.69322C12.7141 7.77306 13.3363 7.98838 13.8408 8.24139C15.498 9.07245 16.7337 10.6163 17.1581 12.386C17.2169 12.631 17.2704 12.8387 17.2771 12.8477C17.2907 12.866 19.0827 12.5731 19.1308 12.5448C19.1794 12.5162 19.0006 11.7658 18.8152 11.2212C17.9823 8.77312 15.9713 6.81294 13.4987 6.03904C13.0369 5.89451 12.3227 5.72902 12.1607 5.72897C12.132 5.72897 12.0587 6.11597 11.9856 6.65322Z" fill="white"/>
</svg>
