<svg width="38" height="40" viewBox="0 0 38 40" fill="none" xmlns="http://www.w3.org/2000/svg">
<g opacity="0.7">
<g clip-path="url(#clip0_66_435)">
<g clip-path="url(#clip1_66_435)">
<g clip-path="url(#clip2_66_435)">
<path d="M37.8622 21.6294C37.8622 11.4222 29.5865 3.14648 19.3793 3.14648C9.17213 3.14648 0.896423 11.4222 0.896423 21.6294C0.896423 30.8554 7.65499 38.5011 16.4913 39.8873V26.9724H11.7982V21.6278H16.4913V17.5585C16.4913 12.927 19.2514 10.3671 23.4732 10.3671C25.494 10.3671 27.6103 10.7291 27.6103 10.7291V15.2774H25.2784C22.9819 15.2774 22.2657 16.7021 22.2657 18.1638V21.6294H27.3916L26.5722 26.974H22.2657V39.8889C31.1036 38.5011 37.8622 30.8538 37.8622 21.6294Z" fill="white"/>
</g>
</g>
</g>
</g>
<defs>
<clipPath id="clip0_66_435">
<rect width="36.9657" height="36.9657" fill="white" transform="translate(0.896423 3.03418)"/>
</clipPath>
<clipPath id="clip1_66_435">
<rect width="36.9657" height="36.9657" fill="white" transform="translate(0.896423 3.03418)"/>
</clipPath>
<clipPath id="clip2_66_435">
<rect width="36.9657" height="36.9657" fill="white" transform="translate(0.896423 3.03418)"/>
</clipPath>
</defs>
</svg>
