<svg width="84" height="57" viewBox="0 0 84 57" fill="none" xmlns="http://www.w3.org/2000/svg">
<path d="M49.6379 10.3397C51.0971 12.066 52.3222 13.944 53.2295 16.0294C53.6062 16.8953 54.0372 17.74 54.3631 18.6249C55.2963 21.158 55.8419 23.7776 56.0253 26.4815C56.3775 31.6731 55.4105 36.5899 53.1457 41.2532C52.1742 43.2537 50.9603 45.09 49.5662 46.8085C49.4728 46.9237 49.3859 47.0442 49.2959 47.1622C48.8854 47.5864 48.4951 48.0333 48.0606 48.4304C46.9107 49.4811 45.7417 50.5103 44.5804 51.5481C43.9505 51.9661 43.3279 52.396 42.6894 52.7998C40.5749 54.1373 38.3184 55.1419 35.9256 55.8605C32.7584 56.8118 29.5268 57.146 26.248 56.9433C22.3799 56.7042 18.6967 55.6925 15.2553 53.8734C9.74699 50.9617 5.5972 46.6734 2.84631 41.0185C0.834921 36.8837 -0.0886351 32.4888 0.00668056 27.886C0.0955131 23.595 1.08999 19.5201 2.99221 15.6776C3.92274 13.7978 5.03818 12.0415 6.36133 10.4251C9.9775 6.00744 14.4654 2.90447 19.8953 1.23592C20.6761 0.995972 21.4446 0.68947 22.2813 0.702794C24.3351 0.0355931 26.4612 -0.00368335 28.5832 0.0105054C31.379 0.0291799 34.1136 0.506246 36.7646 1.40542C37.8724 1.78117 38.9589 2.23607 40.023 2.72686C41.571 3.44091 43.0335 4.31706 44.4059 5.34157C44.2777 5.47684 44.1648 5.63272 44.019 5.7442C42.5689 6.85225 41.241 8.09365 40.0256 9.46138C39.8888 9.61539 39.7112 9.73212 39.5525 9.86617C38.8711 9.48583 38.1979 9.08941 37.5068 8.72815C35.4093 7.6317 33.169 6.98397 30.8403 6.67783C28.2272 6.33428 25.6195 6.4554 23.0561 7.08123C20.321 7.74903 17.7804 8.88738 15.4985 10.5752C13.7579 11.8627 12.1338 13.288 10.8793 15.0815C10.0549 16.26 9.18681 17.4376 8.57631 18.7313C7.92174 20.1184 7.27736 21.542 7.01394 23.0932C6.83346 24.156 6.51529 25.1894 6.44325 26.2778C6.32711 28.033 6.29591 29.7846 6.56388 31.5249C6.73729 32.6509 6.94911 33.7746 7.22032 34.8799C7.37159 35.4965 7.67181 36.0769 7.91824 36.6678C8.84425 38.8885 9.94603 40.9955 11.5696 42.7958C12.9638 44.3418 14.41 45.8172 16.1887 46.9115C17.1132 47.4804 18.0252 48.0604 19.0228 48.5123C23.205 50.407 27.5363 50.9517 32.038 50.1242C34.6325 49.6473 37.0513 48.6991 39.2951 47.2948C39.4265 47.2125 39.5228 47.0724 39.6354 46.9592C39.8214 46.8919 40.0304 46.8595 40.1898 46.7518C41.5689 45.82 42.8063 44.7154 43.9553 43.5081C44.124 43.3308 44.2476 43.1092 44.392 42.9082C44.8541 42.3307 45.3485 41.7767 45.7727 41.1719C47.9783 38.0273 49.263 34.5204 49.653 30.687C49.9094 28.1676 49.7345 25.6634 49.1047 23.2115C48.8194 22.1009 48.4486 21.0055 48.026 19.9403C47.1871 17.8257 46.0017 15.9162 44.5151 14.2033C44.6223 14.0271 44.706 13.8292 44.8406 13.6781C46.0507 12.3199 47.4143 11.1436 48.9139 10.1233C49.1839 9.93957 49.3271 10.0661 49.5109 10.203C49.5304 10.2328 49.5541 10.2585 49.5822 10.2801L49.5897 10.328L49.6379 10.3397Z" fill="#C49D5A"/>
<path d="M48.9139 10.1231C47.4143 11.1434 46.0507 12.3198 44.8406 13.678C44.706 13.829 44.6224 14.0269 44.5151 14.2031C44.4013 14.2875 44.2613 14.3512 44.1779 14.4596C43.4027 15.467 42.6837 16.5084 42.0354 17.6112C41.0443 19.2969 40.3915 21.1118 39.8498 22.9734C39.4448 24.3651 39.2932 25.8132 39.199 27.2549C39.0678 29.2624 39.2371 31.2588 39.674 33.2242C39.8171 33.8679 40.0184 34.4984 40.1936 35.1348C40.5799 36.5375 41.1786 37.8555 41.8657 39.1218C42.3677 40.0471 43.0052 40.8973 43.5906 41.7753C43.8472 42.1601 44.1243 42.5309 44.3921 42.908C44.2476 43.1091 44.1241 43.3307 43.9553 43.508C42.8063 44.7153 41.5689 45.8199 40.1899 46.7517C40.0304 46.8594 39.8215 46.8918 39.6355 46.9591C39.5321 46.8982 39.3956 46.862 39.3305 46.7724C38.6712 45.8653 38.017 44.9542 37.3743 44.035C36.4862 42.7649 35.7627 41.3934 35.1564 39.971C34.38 38.1499 33.7723 36.2651 33.4003 34.3084C33.0536 32.4842 32.7865 30.653 32.8487 28.788C32.8857 27.6805 32.877 26.5673 32.9932 25.468C33.1248 24.2228 33.3276 22.9804 33.5859 21.7555C33.7697 20.8844 34.0843 20.0401 34.3625 19.1913C34.786 17.8992 35.2728 16.6324 35.9263 15.4384C36.2015 14.9354 36.4618 14.4223 36.7649 13.937C37.2695 13.1289 37.7918 12.3315 38.3282 11.5447C38.7183 10.9725 39.1432 10.4247 39.5525 9.86605C39.7113 9.732 39.8888 9.61527 40.0257 9.46125C41.241 8.09352 42.569 6.85213 44.019 5.74408C44.1649 5.63263 44.2778 5.47672 44.406 5.34145C44.989 4.97523 45.5751 4.61377 46.1546 4.24194C48.1032 2.99174 50.1921 2.03963 52.378 1.32216C53.7962 0.856654 55.2518 0.504196 56.7405 0.345894C58.0551 0.2061 59.373 0.00480016 60.69 0.000181352C63.4969 -0.0096876 66.2597 0.38311 68.958 1.20958C71.3686 1.94792 73.6563 2.96868 75.7684 4.34857C76.9262 5.10499 77.9668 6.04404 79.0852 6.86562C80.1486 7.64676 80.9441 8.69928 81.8788 9.60992C82.1346 9.85924 82.3468 10.1571 82.5634 10.4448C82.725 10.6596 82.6681 10.801 82.409 10.8546C82.2866 10.8799 82.1572 10.8749 82.031 10.8749C79.5225 10.8762 77.0141 10.8714 74.5057 10.8818C74.128 10.8833 73.7933 10.788 73.4974 10.5713C71.7434 9.28727 69.84 8.27984 67.7924 7.59954C66.64 7.21665 65.4245 7.02382 64.232 6.77188C62.5903 6.425 60.9191 6.43172 59.2641 6.54619C58.0353 6.63119 56.8179 6.91962 55.6016 7.15059C54.3315 7.39173 53.1657 7.95888 51.9692 8.42475C51.5987 8.56903 51.2541 8.78385 50.9019 8.97442C50.551 9.16426 50.2093 9.37167 49.8563 9.55722" fill="#143D43"/>
<path d="M44.5803 51.548C45.7417 50.5102 46.9107 49.481 48.0605 48.4302C48.495 48.0331 48.8853 47.5862 49.2958 47.1621C49.5687 47.3132 49.8432 47.4613 50.1143 47.6158C52.5401 48.9987 55.1217 49.928 57.8846 50.2863C58.9648 50.4264 60.0602 50.5373 61.146 50.5165C62.3585 50.4933 63.572 50.3764 64.7746 50.1423C66.4359 49.819 68.0574 49.3672 69.5868 48.6465C70.65 48.1455 71.6822 47.5576 72.6686 46.9144C73.436 46.414 74.1856 46.1268 75.1248 46.1516C77.4614 46.2133 79.8007 46.1689 82.1388 46.176C82.3362 46.1766 82.5334 46.2438 82.7307 46.2801C82.6184 46.4528 82.5231 46.6403 82.3909 46.7954C81.8555 47.4236 81.3357 48.0691 80.7586 48.6561C80.1816 49.2428 79.5545 49.781 78.9292 50.3161C77.9012 51.1958 76.8241 52.0074 75.6763 52.7245C74.1856 53.6559 72.6339 54.4667 70.9891 55.0648C69.626 55.5605 68.2417 56.0189 66.8358 56.364C65.7611 56.6278 64.6416 56.7326 63.5353 56.8276C62.4063 56.9245 61.2688 56.9628 60.1357 56.9515C59.3 56.9431 58.4667 56.7734 57.6303 56.7486C56.655 56.7196 55.7155 56.5004 54.7678 56.3161C54.4385 56.2521 54.1123 56.1673 53.7894 56.0749C52.1479 55.6052 50.5326 55.0693 48.9889 54.3151C47.6425 53.6573 46.3355 52.9375 45.1108 52.0694C44.9115 51.9281 44.756 51.7234 44.5803 51.548Z" fill="#143D43"/>
<path d="M82.9329 33.919C82.9329 36.8063 82.9328 39.6935 82.9329 42.5807C82.9329 42.6448 82.9345 42.709 82.9333 42.7732C82.9232 43.34 82.84 43.4349 82.3112 43.3423C81.546 43.2082 80.7846 43.0489 80.0255 42.8822C79.2045 42.7019 78.3894 42.4939 77.5689 42.311C77.0302 42.1909 76.995 42.1698 76.9948 41.5935C76.9923 36.482 76.9919 31.3705 76.9936 26.2591C76.9938 25.6801 77.0258 25.6496 77.5611 25.533C79.0795 25.2022 80.5977 24.8707 82.1162 24.5402C82.1982 24.5224 82.2811 24.5057 82.3644 24.4981C82.848 24.4537 82.9258 24.5118 82.9294 25.0007C82.9378 26.1769 82.9328 27.3533 82.9329 28.5295C82.9331 30.326 82.9329 32.1225 82.9329 33.919ZM77.7584 33.356C77.8297 33.5355 77.9397 33.8279 78.068 34.1117C78.0807 34.1399 78.2558 34.141 78.2688 34.1131C78.3999 33.8319 78.5592 33.5516 78.6188 33.2522C78.6877 32.9064 78.4369 32.5991 78.179 32.6134C77.9439 32.6264 77.7571 32.899 77.7584 33.356Z" fill="#143D43"/>
<path d="M73.8369 33.987C73.8368 30.7794 73.8368 27.5719 73.8368 24.3642C73.8368 24.2573 73.8347 24.1504 73.837 24.0435C73.849 23.4847 73.8512 23.4726 74.4138 23.4719C76.9845 23.4684 79.5552 23.4694 82.1259 23.476C82.2808 23.4764 82.4356 23.5388 82.5905 23.5724C82.448 23.6277 82.3099 23.7052 82.1624 23.7347C80.8852 23.9893 79.6066 24.2372 78.3276 24.483C77.6272 24.6176 76.9256 24.7467 76.2238 24.8738C75.715 24.966 75.6032 25.0922 75.6026 25.6486C75.6004 27.7015 75.6041 29.7544 75.6043 31.8072C75.6047 35.2501 75.6042 38.6929 75.6041 42.1357C75.6041 42.809 75.5977 42.8374 76.2529 42.9958C77.2127 43.2279 78.1834 43.4134 79.149 43.6206C80.2385 43.8544 81.3276 44.0901 82.4167 44.326C82.4575 44.3348 82.4999 44.3479 82.5351 44.3698C82.5799 44.3977 82.6182 44.4364 82.6593 44.4705C82.6192 44.4812 82.5793 44.4994 82.5388 44.5011C82.4125 44.5062 82.286 44.5061 82.1596 44.5061C79.6521 44.5063 77.1446 44.5063 74.6371 44.5063C74.5317 44.5063 74.4259 44.512 74.3211 44.5039C73.9235 44.4734 73.8505 44.4101 73.841 43.9948C73.8273 43.3963 73.837 42.7973 73.837 42.1986C73.8369 39.4614 73.837 36.7242 73.8369 33.987Z" fill="#143D43"/>
<path d="M78.1528 19.6716C78.1528 20.2471 78.1495 20.8225 78.1543 21.3978C78.1564 21.6391 78.1184 21.7915 77.8134 21.7862C76.6587 21.766 75.5035 21.7662 74.3485 21.7708C74.095 21.7718 74.0199 21.6556 74.0197 21.4239C74.0185 20.2304 74.0186 19.0369 74.0031 17.8436C73.9996 17.5749 74.1279 17.5187 74.3466 17.5186C75.5226 17.5181 76.6987 17.5185 77.8747 17.5091C78.1012 17.5073 78.1604 17.6145 78.159 17.8175C78.1545 18.4355 78.1573 19.0536 78.1573 19.6716H78.1528Z" fill="#C49D5A"/>
<path d="M83.0837 19.7288C83.0837 20.2847 83.0768 20.8407 83.0868 21.3964C83.0914 21.649 83.0394 21.7924 82.7439 21.7893C81.5853 21.7772 80.4265 21.7792 79.2679 21.7865C79.0158 21.7881 78.9308 21.6647 78.9306 21.4376C78.9296 20.2404 78.9307 19.0432 78.9272 17.846C78.9265 17.5972 79.0469 17.5129 79.2796 17.5146C80.4383 17.5231 81.597 17.5285 82.7557 17.5242C83.0059 17.5233 83.0818 17.6301 83.0782 17.8688C83.0688 18.4887 83.075 19.1088 83.075 19.7288L83.0837 19.7288Z" fill="#C49D5A"/>
<path d="M81.0264 16.6885C80.4794 16.6885 79.9318 16.6741 79.3854 16.694C79.0697 16.7055 78.9249 16.6226 78.932 16.2687C78.9534 15.2016 78.9379 14.1337 78.9569 13.0664C78.965 12.6148 78.9879 12.6039 79.4353 12.6057C80.5083 12.6099 81.5813 12.6321 82.6543 12.6326C82.9358 12.6328 83.0727 12.6999 83.0687 13.0251C83.0551 14.1139 83.0573 15.2033 83.0776 16.292C83.0837 16.6189 82.9523 16.6893 82.6676 16.6813C82.1209 16.666 81.5735 16.6769 81.0265 16.6769L81.0264 16.6885Z" fill="#C49D5A"/>
<path d="M76.1141 12.6057C76.6827 12.6057 77.2515 12.6141 77.8198 12.6011C78.0142 12.5966 78.145 12.6122 78.1448 12.8526C78.144 14.0493 78.1462 15.2461 78.1511 16.4429C78.1519 16.6452 78.044 16.6932 77.8712 16.6926C76.6918 16.6885 75.5125 16.6841 74.3332 16.6891C74.0777 16.6902 74.0103 16.5587 74.0102 16.3333C74.0095 15.222 74.0084 14.1107 74.0001 12.9994C73.998 12.7074 74.1032 12.5802 74.4088 12.5904C74.9767 12.6095 75.5456 12.5959 76.1141 12.5959C76.1141 12.5992 76.1141 12.6024 76.1141 12.6057Z" fill="#C49D5A"/>
<path d="M49.6379 10.3398L49.5898 10.328L49.5822 10.2801C49.6079 10.3041 49.6072 10.3041 49.6379 10.3398Z" fill="#C49D5A"/>
</svg>
