<svg width="20" height="27" viewBox="0 0 20 27" fill="none" xmlns="http://www.w3.org/2000/svg">
<path fill-rule="evenodd" clip-rule="evenodd" d="M8.43878 1.04078C6.23127 1.39682 4.44785 2.25845 2.91609 3.70894C1.11591 5.41361 0.150166 7.49724 0.0102786 9.97834C-0.142531 12.6889 1.4105 16.4089 4.53599 20.8192C5.38371 22.0153 5.94854 22.7475 7.10172 24.145C8.23293 25.516 9.27191 26.6707 9.51017 26.8217C9.76593 26.9839 10.2346 26.9839 10.4903 26.8217C10.8366 26.6022 12.9446 24.1595 14.2902 22.4186C16.1075 20.0674 17.8443 17.2741 18.7732 15.2083C19.6404 13.2801 20.0718 11.4259 19.9902 9.97834C19.8503 7.49724 18.8846 5.41361 17.0844 3.70894C15.5238 2.23113 13.6696 1.35092 11.4207 1.02021C10.6694 0.909722 9.18786 0.919928 8.43878 1.04078ZM9.03715 5.73767C7.74548 6.01344 6.75388 6.60885 6.00685 7.5573C4.52511 9.43838 4.72094 12.0051 6.47255 13.6615C8.91513 15.9714 12.9772 15.3153 14.4998 12.365C15.2981 10.818 15.1032 8.9658 13.9937 7.5573C13.3297 6.71426 12.4575 6.14317 11.3624 5.8343C10.7681 5.66674 9.59739 5.61809 9.03715 5.73767Z" fill="white"/>
</svg>
