<svg width="38" height="40" viewBox="0 0 38 40" fill="none" xmlns="http://www.w3.org/2000/svg">
<g opacity="0.7">
<g clip-path="url(#clip0_66_430)">
<g clip-path="url(#clip1_66_430)">
<g clip-path="url(#clip2_66_430)">
<path d="M19.2414 3.03418C14.2202 3.03418 13.5934 3.05728 11.6218 3.14508C9.65342 3.23749 8.31342 3.54708 7.13513 4.00453C5.91988 4.47584 4.88792 5.10888 3.86059 6.13622C2.83325 7.16356 2.19867 8.19398 1.7289 9.41077C1.27144 10.5891 0.960316 11.9291 0.869442 13.8975C0.777028 15.869 0.758545 16.4959 0.758545 21.517C0.758545 26.5382 0.781648 27.1651 0.869442 29.1366C0.961856 31.1035 1.27144 32.445 1.7289 33.6233C2.20021 34.837 2.83325 35.8705 3.86059 36.8979C4.88792 37.9237 5.91834 38.5598 7.13513 39.0296C8.31496 39.4855 9.65496 39.7981 11.6218 39.889C13.5934 39.9814 14.2202 39.9999 19.2414 39.9999C24.2626 39.9999 24.8895 39.9768 26.861 39.889C28.8279 39.7966 30.1694 39.4855 31.3477 39.0296C32.5614 38.5582 33.5949 37.9237 34.6222 36.8979C35.648 35.8705 36.2842 34.8417 36.7539 33.6233C37.2098 32.445 37.5225 31.1035 37.6134 29.1366C37.7058 27.1651 37.7243 26.5382 37.7243 21.517C37.7243 16.4959 37.7012 15.869 37.6134 13.8975C37.521 11.9306 37.2098 10.5875 36.7539 9.41077C36.2826 8.19552 35.648 7.16356 34.6222 6.13622C33.5949 5.10888 32.566 4.4743 31.3477 4.00453C30.1694 3.54708 28.8279 3.23595 26.861 3.14508C24.8895 3.05266 24.2626 3.03418 19.2414 3.03418ZM19.2414 6.3611C24.1748 6.3611 24.7632 6.38574 26.7116 6.47045C28.5136 6.55517 29.4917 6.85397 30.1417 7.10965C31.0073 7.44388 31.6203 7.84435 32.2703 8.48971C32.9156 9.13661 33.3161 9.75116 33.6503 10.6168C33.9029 11.2668 34.2048 12.2448 34.2865 14.0469C34.3743 15.9968 34.3943 16.5821 34.3943 21.517C34.3943 26.452 34.3712 27.0388 34.2803 28.9872C34.1863 30.7893 33.886 31.7673 33.6319 32.4173C33.2868 33.2829 32.8941 33.8959 32.2472 34.5459C31.6018 35.1913 30.978 35.5917 30.1217 35.926C29.4748 36.1786 28.4813 36.4805 26.6792 36.5621C24.717 36.6499 24.1394 36.6699 19.1952 36.6699C14.2495 36.6699 13.6719 36.6468 11.7112 36.5559C9.90756 36.462 8.91411 36.1616 8.26721 35.9075C7.39081 35.5625 6.78858 35.1697 6.14322 34.5228C5.49478 33.8775 5.08045 33.2537 4.757 32.3973C4.50287 31.7504 4.20406 30.7569 4.1101 28.9549C4.04079 27.0142 4.01615 26.415 4.01615 21.4939C4.01615 16.5713 4.04079 15.9706 4.1101 14.0068C4.20406 12.2048 4.50287 11.2128 4.757 10.5659C5.08045 9.68801 5.49478 9.08732 6.14322 8.43888C6.78858 7.79352 7.39081 7.37765 8.26721 7.05574C8.91411 6.80006 9.886 6.49972 11.6881 6.4073C13.6519 6.33799 14.2295 6.31489 19.1721 6.31489L19.2414 6.3611ZM19.2414 12.0261C13.9969 12.0261 9.75046 16.2772 9.75046 21.517C9.75046 26.7616 14.0015 31.008 19.2414 31.008C24.4859 31.008 28.7324 26.7569 28.7324 21.517C28.7324 16.2725 24.4813 12.0261 19.2414 12.0261ZM19.2414 27.678C15.8375 27.678 13.0805 24.921 13.0805 21.517C13.0805 18.1131 15.8375 15.3561 19.2414 15.3561C22.6453 15.3561 25.4024 18.1131 25.4024 21.517C25.4024 24.921 22.6453 27.678 19.2414 27.678ZM31.3261 11.6518C31.3261 12.8763 30.3311 13.8698 29.1082 13.8698C27.8837 13.8698 26.8902 12.8748 26.8902 11.6518C26.8902 10.4289 27.8852 9.43541 29.1082 9.43541C30.3296 9.43387 31.3261 10.4289 31.3261 11.6518Z" fill="white"/>
</g>
</g>
</g>
</g>
<defs>
<clipPath id="clip0_66_430">
<rect width="36.9657" height="36.9657" fill="white" transform="translate(0.758545 3.03418)"/>
</clipPath>
<clipPath id="clip1_66_430">
<rect width="36.9657" height="36.9657" fill="white" transform="translate(0.758545 3.03418)"/>
</clipPath>
<clipPath id="clip2_66_430">
<rect width="36.9657" height="36.9657" fill="white" transform="translate(0.758545 3.03418)"/>
</clipPath>
</defs>
</svg>
