<svg width="37" height="40" viewBox="0 0 37 40" fill="none" xmlns="http://www.w3.org/2000/svg">
<g opacity="0.7">
<g clip-path="url(#clip0_66_440)">
<g clip-path="url(#clip1_66_440)">
<g clip-path="url(#clip2_66_440)">
<path d="M31.5277 34.5351H26.0536V25.9576C26.0536 23.9121 26.0121 21.2798 23.2011 21.2798C20.3471 21.2798 19.9112 23.5055 19.9112 25.8066V34.5351H14.4372V16.8963H19.6955V19.3006H19.7664C20.5011 17.9144 22.2878 16.4512 24.957 16.4512C30.5034 16.4512 31.5292 20.1016 31.5292 24.8532L31.5277 34.5351ZM8.25465 14.4828C6.49261 14.4828 5.07713 13.0565 5.07713 11.3022C5.07713 9.54939 6.49415 8.12467 8.25465 8.12467C10.0105 8.12467 11.4337 9.54939 11.4337 11.3022C11.4337 13.0565 10.009 14.4828 8.25465 14.4828ZM10.9994 34.5351H5.50994V16.8963H10.9994V34.5351ZM34.2662 3.03418H2.76216C1.25426 3.03418 0.0343933 4.22632 0.0343933 5.69725V37.3368C0.0343933 38.8093 1.25426 39.9999 2.76216 39.9999H34.2616C35.7679 39.9999 37.0001 38.8093 37.0001 37.3368V5.69725C37.0001 4.22632 35.7679 3.03418 34.2616 3.03418H34.2662Z" fill="white"/>
</g>
</g>
</g>
</g>
<defs>
<clipPath id="clip0_66_440">
<rect width="36.9657" height="36.9657" fill="white" transform="translate(0.0343018 3.03418)"/>
</clipPath>
<clipPath id="clip1_66_440">
<rect width="36.9657" height="36.9657" fill="white" transform="translate(0.0343323 3.03418)"/>
</clipPath>
<clipPath id="clip2_66_440">
<rect width="36.9657" height="36.9657" fill="white" transform="translate(0.0343628 3.03418)"/>
</clipPath>
</defs>
</svg>
