<svg width="25" height="19" viewBox="0 0 25 19" fill="none" xmlns="http://www.w3.org/2000/svg">
<path fill-rule="evenodd" clip-rule="evenodd" d="M22.0343 1.01853C22.4228 1.0942 22.8568 1.26047 23.2327 1.47763C23.6235 1.70337 24.2163 2.29027 24.4568 2.68942C24.6865 3.07099 24.9363 3.7442 24.8715 3.80753C24.8481 3.83041 22.0566 5.50135 18.6682 7.52069C13.0111 10.8922 12.4992 11.1871 12.4063 11.129C12.3506 11.0941 9.59674 9.45035 6.28655 7.47614C2.97636 5.50187 0.237963 3.85967 0.201168 3.82678C0.144882 3.77641 0.154434 3.70855 0.261646 3.39675C0.445808 2.86103 0.740789 2.4044 1.1671 1.99491C1.72505 1.45904 2.31257 1.15368 3.05205 1.01534C3.57573 0.917359 21.5304 0.920361 22.0343 1.01853ZM25 10.9266C25 15.6774 24.9967 15.86 24.9032 16.224C24.7095 16.9784 24.2541 17.6668 23.6166 18.1691C23.2846 18.4307 22.583 18.772 22.1735 18.8711C21.7752 18.9674 3.27354 18.9674 2.87524 18.8711C2.46569 18.772 1.76408 18.4307 1.43211 18.1691C0.812281 17.6807 0.351072 17.0005 0.174902 16.315C0.127728 16.1315 0.0691013 15.9442 0.04459 15.8987C0.0184689 15.8502 0 13.7705 0 10.8757C0 6.17456 0.00414276 5.93896 0.0852833 6.00868C0.212378 6.1178 11.7859 13.003 12.0127 13.1044C12.2488 13.21 12.7973 13.2232 13.0254 13.1288C13.1117 13.0931 15.8412 11.4759 19.0911 9.53503L25 6.00615V10.9266ZM24.9765 10.9539C24.9765 13.6928 24.9707 14.8132 24.9635 13.4438C24.9563 12.0743 24.9563 9.8334 24.9635 8.46396C24.9707 7.09447 24.9765 8.21497 24.9765 10.9539Z" fill="white"/>
</svg>
